<?xml version="1.0" encoding="iso-8859-1"?>
<svg xmlns="http://www.w3.org/2000/svg" version="1.1" id="Capa_1" x="0px" y="0px" viewBox="0 0 512 512" style="enable-background:new 0 0 512 512;" width="512px" height="512px">
<g>
	<g>
		<path d="M201,86.05c-0.13-0.64-0.32-1.27-0.57-1.87c-0.25-0.61-0.56-1.19-0.92-1.729c-0.36-0.551-0.78-1.061-1.24-1.521    c-1.86-1.86-4.44-2.93-7.07-2.93s-5.21,1.069-7.07,2.93c-0.46,0.46-0.88,0.97-1.25,1.521c-0.36,0.54-0.67,1.119-0.92,1.729    c-0.25,0.601-0.44,1.23-0.57,1.87s-0.19,1.3-0.19,1.95c0,0.649,0.06,1.31,0.19,1.95c0.13,0.64,0.32,1.27,0.57,1.869    c0.25,0.61,0.56,1.191,0.92,1.73c0.37,0.55,0.79,1.06,1.25,1.52c0.46,0.461,0.97,0.881,1.52,1.24c0.54,0.36,1.12,0.67,1.72,0.92    c0.61,0.25,1.24,0.45,1.87,0.57c0.65,0.13,1.31,0.2,1.96,0.2c0.65,0,1.31-0.07,1.95-0.2c0.64-0.12,1.27-0.32,1.87-0.57    c0.61-0.25,1.19-0.56,1.73-0.92c0.55-0.359,1.06-0.779,1.52-1.24c0.46-0.46,0.88-0.97,1.24-1.52c0.36-0.54,0.67-1.12,0.92-1.73    c0.25-0.6,0.44-1.229,0.57-1.869c0.13-0.641,0.2-1.301,0.2-1.95C201.2,87.35,201.13,86.689,201,86.05z" fill="#b8c8d4"/>
	</g>
</g>
<g>
	<g>
		<path d="M502,413H357.25v-60c0-5.522-4.477-10-10-10h-49.002v-49.542c63.474-18.358,110.023-76.994,110.023-146.302V10    c0-5.523-4.477-10-10-10H113.729c-5.523,0-10,4.477-10,10v137.156c0,69.308,46.548,127.944,110.022,146.302V343H164.75    c-5.523,0-10,4.478-10,10v30H10c-5.523,0-10,4.478-10,10v109c0,5.522,4.477,10,10,10h154.75h182.5H502c5.523,0,10-4.478,10-10v-79    C512,417.478,507.523,413,502,413z M154.75,492H20v-89h134.75V492z M123.729,147.156V20h264.542v58H368.27V50    c0-5.522-4.477-10-10-10H153.729c-5.523,0-10,4.478-10,10v97.156c0,61.906,50.364,112.27,112.271,112.27    c61.906,0,112.27-50.364,112.27-112.27V98h20.001v49.156c0,64.778-46.809,118.824-108.378,130.103    c-0.22,0.04-0.439,0.084-0.66,0.123c-0.647,0.115-1.299,0.218-1.949,0.324c-0.619,0.1-1.238,0.2-1.858,0.291    c-0.415,0.061-0.832,0.118-1.248,0.175c-0.907,0.124-1.815,0.242-2.725,0.347c-0.199,0.023-0.398,0.046-0.597,0.068    c-9.851,1.093-19.86,1.093-29.711,0c-0.199-0.022-0.398-0.045-0.597-0.068c-0.91-0.105-1.818-0.223-2.725-0.347    c-0.416-0.057-0.833-0.114-1.248-0.175c-0.621-0.091-1.239-0.191-1.858-0.291c-0.651-0.106-1.302-0.209-1.949-0.324    c-0.22-0.039-0.44-0.083-0.66-0.123C170.538,265.98,123.729,211.934,123.729,147.156z M276.192,173.143l-16.841-5.989    c-2.167-0.771-4.534-0.771-6.701,0l-16.842,5.989l0.492-17.868c0.064-2.3-0.668-4.551-2.071-6.374l-10.9-14.166l17.145-5.055    c2.206-0.65,4.121-2.041,5.421-3.938L256,110.996l10.105,14.745c1.3,1.897,3.215,3.288,5.421,3.938l17.145,5.055l-10.9,14.166    c-1.403,1.823-2.134,4.074-2.071,6.374L276.192,173.143z M227.531,78c-5.523,0-10,4.478-10,10c0,5.522,4.477,10,10,10h13.13    l-9.253,13.502l-27.73,8.175c-3.163,0.933-5.664,3.365-6.683,6.502c-1.019,3.137-0.426,6.574,1.585,9.188l17.629,22.911    l-0.795,28.899c-0.091,3.297,1.45,6.427,4.118,8.365c2.669,1.939,6.121,2.438,9.229,1.332L256,187.189l27.239,9.686    c1.09,0.388,2.223,0.578,3.35,0.578c2.084,0,4.147-0.651,5.879-1.91c2.668-1.938,4.209-5.067,4.118-8.365l-0.795-28.898    l17.63-22.912c2.011-2.614,2.605-6.052,1.586-9.188c-1.019-3.137-3.52-5.569-6.683-6.502l-27.73-8.175L271.339,98h76.932v49.156    c0,50.878-41.393,92.271-92.27,92.271c-50.877,0-92.271-41.393-92.271-92.271V60h184.54v18H227.531z M278.248,297.809V343h-44.497    v-45.191h0c0.314,0.046,0.63,0.077,0.944,0.121c1.259,0.177,2.523,0.339,3.792,0.485c0.409,0.047,0.816,0.097,1.226,0.141    c1.659,0.177,3.325,0.331,4.999,0.454c0.161,0.012,0.323,0.02,0.484,0.031c1.559,0.11,3.125,0.193,4.696,0.255    c0.313,0.013,0.626,0.025,0.939,0.036c1.717,0.057,3.438,0.097,5.168,0.097c1.73,0,3.451-0.04,5.168-0.097    c0.313-0.01,0.626-0.023,0.939-0.036c1.571-0.062,3.137-0.145,4.696-0.255c0.161-0.011,0.323-0.019,0.485-0.031    c1.674-0.123,3.34-0.276,4.999-0.454c0.409-0.044,0.817-0.094,1.226-0.141c1.269-0.146,2.533-0.307,3.792-0.485    C277.618,297.886,277.934,297.855,278.248,297.809z M337.25,423v69h-122.5v-56.609c0-5.522-4.477-10-10-10s-10,4.478-10,10V492    h-20v-99v-30h49.001h64.497h49.002V423z M492,492H357.25v-59H492V492z" fill="#b8c8d4"/>
	</g>
</g>
<g>
	<g>
		<path d="M214.56,397.101c-0.13-0.63-0.33-1.26-0.58-1.87c-0.25-0.6-0.56-1.18-0.92-1.72c-0.36-0.55-0.78-1.06-1.24-1.52    c-0.46-0.46-0.97-0.881-1.52-1.25c-0.54-0.36-1.12-0.671-1.73-0.921c-0.6-0.25-1.23-0.439-1.87-0.569    c-3.25-0.65-6.7,0.41-9.02,2.74c-0.46,0.46-0.88,0.97-1.24,1.52c-0.36,0.54-0.67,1.12-0.92,1.72c-0.25,0.61-0.45,1.24-0.57,1.87    c-0.13,0.65-0.2,1.311-0.2,1.96c0,0.65,0.07,1.31,0.2,1.95c0.12,0.638,0.32,1.269,0.57,1.869c0.25,0.61,0.56,1.189,0.92,1.729    c0.36,0.551,0.78,1.06,1.24,1.521c1.86,1.86,4.44,2.93,7.07,2.93c0.65,0,1.31-0.069,1.95-0.2c0.64-0.13,1.27-0.319,1.87-0.569    c0.61-0.25,1.19-0.561,1.73-0.92c0.55-0.36,1.06-0.78,1.52-1.24c0.46-0.46,0.88-0.97,1.24-1.521c0.36-0.54,0.67-1.119,0.92-1.729    c0.25-0.6,0.45-1.23,0.58-1.87c0.13-0.64,0.19-1.3,0.19-1.95C214.75,398.412,214.69,397.751,214.56,397.101z" fill="#b8c8d4"/>
	</g>
</g>
</svg>
