<?xml version="1.0" encoding="utf-8"?>
<!-- Generator: Adobe Illustrator 19.0.0, SVG Export Plug-In . SVG Version: 6.00 Build 0)  -->
<svg version="1.1" id="Capa_1" xmlns="http://www.w3.org/2000/svg" xmlns:xlink="http://www.w3.org/1999/xlink" x="0px" y="0px"
	 viewBox="-41 164.9 512 512" style="enable-background:new -41 164.9 512 512;" xml:space="preserve">
<style type="text/css">
	.st0{fill:#69747A;}
	.st1{clip-path:url(#SVGID_2_);}
	.st2{fill:#9DC3E2;}
</style>
<path class="st0" d="M215,676.9L215,676.9c-141.4,0-256-114.6-256-256v0c0-141.4,114.6-256,256-256h0c141.4,0,256,114.6,256,256v0
	C471,562.3,356.4,676.9,215,676.9z"/>
<g>
	<defs>
		<path id="SVGID_1_" d="M215,676.9L215,676.9c-141.4,0-256-114.6-256-256v0c0-141.4,114.6-256,256-256h0c141.4,0,256,114.6,256,256
			v0C471,562.3,356.4,676.9,215,676.9z"/>
	</defs>
	<clipPath id="SVGID_2_">
		<use xlink:href="#SVGID_1_"  style="overflow:visible;"/>
	</clipPath>
	<g class="st1">
		<g>
			<path class="st2" d="M213.3,444.5c0.5,0,0.9,0,1.5,0c0.2,0,0.4,0,0.6,0c0.3,0,0.7,0,0.9,0c27.7-0.5,45.1-11.3,61.6-31.8
				c36.4-45.3,35.3-122.9,34.7-130.3c-2.4-55.6-26.2-82.2-45.8-94.7c-14.6-9.3-31.7-14.3-50.8-14.7h-0.7c-0.1,0-0.3,0-0.4,0h-0.6
				c-10.5,0-31.1,1.9-50.8,14.3c-19.8,12.4-44,39-46.4,95.1c-0.7,7.4-1.7,85.1,34.7,130.3C168.3,433.2,185.7,444,213.3,444.5z"/>
			<path class="st2" d="M409,573.3c0-0.1,0-0.2,0-0.3c0-0.8-0.1-1.7-0.1-2.6c-0.6-20.7-1.8-69-42.8-84.4c-0.3-0.1-0.7-0.2-0.9-0.3
				c-42.6-12-78-39.1-78.4-39.4c-5.8-4.5-13.7-2.9-17.8,3.4c-4.1,6.4-32.1,16.8-54.1,16.8c-22.7,0-49.8-10.5-53.9-16.9
				s-12-7.9-17.8-3.4c-0.4,0.3-35.6,27.4-78.4,39.4c-0.4,0.1-0.7,0.2-0.9,0.3c-41,15.5-42.2,63.9-42.8,84.4c0,0.9,0,1.8-0.1,2.6
				c0,0.1,0,0.2,0,0.3c-0.1,5.4-0.2,33.3,4.8,47.3c0.9,2.7,2.6,5,4.9,6.6c2.8,2.1,70.8,49.9,184.4,49.9S396.7,629,399.5,627
				c2.2-1.6,4-3.9,4.9-6.6C409.2,606.6,409.1,578.7,409,573.3z"/>
		</g>
	</g>
</g>
</svg>
