<?xml version="1.0" encoding="iso-8859-1"?>
<svg xmlns="http://www.w3.org/2000/svg" version="1.1" id="Capa_1" x="0px" y="0px" viewBox="0 0 512 512" style="enable-background:new 0 0 512 512;" width="512px" height="512px">
<g>
	<g>
		<path d="M394.845,129.954c5.658-7.354,7.325-17.015,4.457-25.84c-2.868-8.825-9.894-15.66-18.794-18.283l-60.972-17.974    c-1.787-0.526-3.351-1.663-4.403-3.199l-35.936-52.435C273.951,4.569,265.279,0,256,0c-9.279,0-17.951,4.569-23.197,12.224    l-35.936,52.435c-1.053,1.536-2.616,2.673-4.402,3.199l-60.973,17.974c-8.9,2.623-15.926,9.458-18.794,18.283    s-1.201,18.485,4.457,25.84l38.763,50.379c1.136,1.477,1.733,3.315,1.683,5.177l-1.748,63.543    c-0.255,9.275,4.075,18.069,11.582,23.523c7.507,5.455,17.206,6.855,25.952,3.746l15.116-5.375    c3.846,19.213,0.626,39.322-9.286,56.485l-24.71,42.789h-44.5c-5.522,0-10,4.478-10,10V502c0,5.522,4.478,10,10,10h251.986    c5.522,0,10-4.478,10-10V380.221c0-5.522-4.478-10-10-10h-44.5l-24.71-42.789c-9.911-17.163-13.131-37.272-9.286-56.485    l15.116,5.375c3.069,1.091,6.255,1.627,9.423,1.627c5.859,0,11.657-1.833,16.529-5.373c7.507-5.454,11.837-14.248,11.582-23.524    l-1.748-63.541c-0.051-1.862,0.547-3.701,1.683-5.178L394.845,129.954z M371.993,390.22v63.14h-124.39c-5.522,0-10,4.477-10,10    c0,5.522,4.478,10,10,10h124.39V492H140.007v-63.14h119.689c5.522,0,10-4.478,10-10c0-5.523-4.478-10-10-10H140.007v-18.64h40.273    h151.44H371.993z M314.398,370.221H197.602l18.935-32.787c12.842-22.239,16.68-48.448,10.973-73.245l25.768-9.164    c1.756-0.623,3.691-0.623,5.444,0l25.768,9.164c-5.706,24.796-1.869,51.005,10.973,73.245L314.398,370.221z M340.23,168.138    c-3.932,5.11-6,11.475-5.823,17.923l1.748,63.541c0.074,2.72-1.145,5.196-3.346,6.795c-2.2,1.599-4.935,1.993-7.495,1.082    l-59.893-21.298c-3.038-1.08-6.229-1.62-9.422-1.62c-3.192,0-6.385,0.54-9.423,1.62l-34.571,12.294h-0.001l-25.319,9.004    c-2.563,0.91-5.295,0.518-7.496-1.082c-2.201-1.599-3.42-4.075-3.346-6.794l1.748-63.543c0.177-6.447-1.892-12.812-5.823-17.922    l-38.763-50.379c-1.659-2.156-2.128-4.877-1.287-7.464c0.84-2.587,2.818-4.511,5.427-5.28l60.974-17.974    c6.186-1.823,11.6-5.758,15.245-11.076L249.3,23.531C250.838,21.286,253.28,20,256,20c2.72,0,5.162,1.286,6.699,3.53    l35.936,52.434c3.646,5.318,9.06,9.253,15.246,11.076l60.973,17.974c2.608,0.77,4.587,2.693,5.427,5.28    c0.841,2.587,0.372,5.308-1.287,7.464L340.23,168.138z" fill="#b8c8d4"/>
	</g>
</g>
<g>
	<g>
		<path d="M353.674,118.938c-1.021-3.133-3.521-5.566-6.685-6.499l-37.352-11.011c-9.483-2.796-17.785-8.827-23.375-16.984    l-22.014-32.12c-1.865-2.721-4.951-4.347-8.249-4.347c-3.298,0-6.384,1.626-8.249,4.347l-22.013,32.119    c-5.59,8.157-13.893,14.189-23.377,16.986l-37.351,11.01c-3.164,0.933-5.664,3.365-6.684,6.502    c-1.019,3.137-0.426,6.574,1.585,9.188l23.745,30.862c6.03,7.836,9.201,17.597,8.931,27.482l-1.07,38.924    c-0.002,0.067,0.007,0.133,0.007,0.2c-0.002,0.269,0.007,0.537,0.027,0.805c0.009,0.117,0.015,0.233,0.028,0.35    c0.034,0.314,0.083,0.627,0.147,0.937c0.011,0.052,0.016,0.105,0.028,0.156c0.08,0.362,0.184,0.719,0.305,1.072    c0.028,0.081,0.062,0.159,0.092,0.239c0.101,0.272,0.213,0.54,0.337,0.804c0.044,0.093,0.091,0.185,0.138,0.276    c0.129,0.252,0.27,0.498,0.421,0.74c0.05,0.08,0.098,0.16,0.15,0.238c0.18,0.27,0.375,0.532,0.583,0.786    c0.032,0.039,0.06,0.081,0.093,0.12c0.245,0.29,0.508,0.569,0.791,0.834c0.055,0.052,0.116,0.097,0.172,0.148    c0.182,0.163,0.362,0.327,0.558,0.478c0.051,0.04,0.105,0.073,0.157,0.111c0.029,0.022,0.054,0.048,0.084,0.069    c0.077,0.056,0.159,0.104,0.237,0.158c0.111,0.076,0.221,0.152,0.334,0.223c0.109,0.068,0.22,0.131,0.331,0.195    c0.129,0.074,0.258,0.149,0.39,0.217c0.094,0.049,0.19,0.092,0.285,0.137c0.151,0.072,0.302,0.145,0.456,0.209    c0.076,0.032,0.153,0.058,0.229,0.087c0.174,0.068,0.348,0.135,0.525,0.192c0.058,0.019,0.117,0.033,0.175,0.051    c0.195,0.059,0.39,0.117,0.588,0.164c0.048,0.012,0.096,0.019,0.144,0.029c0.208,0.046,0.416,0.091,0.626,0.124    c0.054,0.008,0.109,0.012,0.163,0.02c0.204,0.029,0.408,0.056,0.612,0.072c0.148,0.012,0.297,0.013,0.445,0.018    c0.111,0.004,0.221,0.013,0.332,0.013c0.001,0,0.002,0,0.003,0c0.002,0,0.003,0,0.005,0c0.336,0,0.672-0.023,1.008-0.057    c0.094-0.01,0.188-0.024,0.282-0.036c0.248-0.032,0.494-0.074,0.741-0.125c0.102-0.021,0.204-0.042,0.306-0.066    c0.266-0.064,0.529-0.14,0.791-0.226c0.066-0.022,0.133-0.038,0.198-0.061c0.008-0.003,0.016-0.005,0.025-0.008l36.688-13.047    c9.3-3.307,19.595-3.306,28.896,0.001l36.688,13.046c3.108,1.104,6.561,0.607,9.229-1.332c2.668-1.939,4.209-5.068,4.118-8.365    l-1.071-38.926c-0.271-9.885,2.901-19.645,8.931-27.48l23.745-30.861C354.1,125.513,354.693,122.075,353.674,118.938z     M199.51,146.794l-14.849-19.296l23.355-6.885c13.885-4.094,26.037-12.924,34.22-24.863L256,75.667l13.765,20.084    c3,4.377,6.537,8.33,10.494,11.791l-67.906,87.777l0.228-8.297C212.977,172.551,208.336,158.265,199.51,146.794z M312.491,146.794    c-8.825,11.47-13.467,25.755-13.071,40.226l0.67,24.342l-22.94-8.157c-6.808-2.421-13.924-3.648-21.149-3.648    c-7.227,0-14.341,1.228-21.148,3.647l-4.57,1.625l67.013-86.622c2.178,0.921,4.407,1.734,6.689,2.406l23.355,6.885    L312.491,146.794z" fill="#b8c8d4"/>
	</g>
</g>
<g>
	<g>
		<path d="M221.08,461.41c-0.13-0.64-0.32-1.27-0.57-1.87c-0.25-0.61-0.56-1.19-0.92-1.73c-0.37-0.55-0.79-1.06-1.25-1.52    c-0.46-0.46-0.97-0.88-1.52-1.24c-0.539-0.36-1.119-0.67-1.73-0.92c-0.6-0.25-1.23-0.44-1.87-0.57c-1.29-0.26-2.61-0.26-3.9,0    c-0.64,0.13-1.27,0.32-1.88,0.57c-0.6,0.25-1.18,0.56-1.72,0.92c-0.55,0.36-1.059,0.78-1.52,1.24c-0.46,0.46-0.881,0.97-1.24,1.52    c-0.36,0.54-0.67,1.12-0.92,1.73c-0.25,0.6-0.44,1.229-0.57,1.87c-0.13,0.64-0.2,1.3-0.2,1.949c0,0.65,0.07,1.31,0.2,1.95    c0.13,0.641,0.32,1.271,0.57,1.88c0.25,0.6,0.56,1.181,0.92,1.721c0.359,0.55,0.78,1.06,1.24,1.52c0.46,0.46,0.97,0.88,1.52,1.24    c0.54,0.36,1.12,0.67,1.72,0.92c0.61,0.25,1.24,0.45,1.88,0.57c0.641,0.13,1.301,0.199,1.95,0.199c0.65,0,1.311-0.069,1.95-0.199    c0.64-0.12,1.271-0.32,1.87-0.57c0.61-0.25,1.191-0.56,1.73-0.92c0.551-0.36,1.061-0.78,1.52-1.24c0.46-0.46,0.88-0.97,1.24-1.52    c0.359-0.54,0.67-1.12,0.92-1.721c0.25-0.609,0.45-1.239,0.58-1.88c0.13-0.64,0.189-1.3,0.189-1.95    C221.269,462.71,221.21,462.049,221.08,461.41z" fill="#b8c8d4"/>
	</g>
</g>
<g>
	<g>
		<path d="M305.83,416.91c-0.13-0.64-0.32-1.27-0.57-1.88c-0.25-0.601-0.56-1.181-0.92-1.721c-0.36-0.55-0.78-1.06-1.24-1.52    c-0.46-0.46-0.98-0.88-1.52-1.24c-0.55-0.36-1.13-0.67-1.73-0.92c-0.6-0.25-1.23-0.44-1.87-0.57c-1.29-0.26-2.62-0.26-3.91,0    c-0.63,0.13-1.26,0.32-1.869,0.57c-0.601,0.25-1.181,0.56-1.721,0.92c-0.55,0.36-1.06,0.78-1.52,1.24    c-0.46,0.46-0.88,0.97-1.25,1.52c-0.36,0.54-0.67,1.12-0.92,1.721c-0.25,0.609-0.44,1.239-0.57,1.88    c-0.13,0.64-0.189,1.3-0.189,1.949c0,0.65,0.06,1.31,0.189,1.95c0.13,0.641,0.32,1.271,0.57,1.87c0.25,0.61,0.56,1.19,0.92,1.73    c0.37,0.55,0.79,1.06,1.25,1.52c0.46,0.46,0.97,0.88,1.52,1.24c0.54,0.36,1.12,0.67,1.721,0.92c0.609,0.25,1.239,0.45,1.869,0.57    c0.65,0.13,1.311,0.199,1.961,0.199c0.649,0,1.31-0.069,1.949-0.199c0.641-0.12,1.271-0.32,1.87-0.57    c0.601-0.25,1.181-0.56,1.73-0.92c0.54-0.36,1.059-0.78,1.52-1.24c0.46-0.46,0.88-0.97,1.24-1.52c0.36-0.54,0.67-1.12,0.92-1.73    c0.25-0.6,0.44-1.229,0.57-1.87c0.13-0.64,0.2-1.3,0.2-1.95C306.03,418.21,305.96,417.549,305.83,416.91z" fill="#b8c8d4"/>
	</g>
</g>
</svg>
