<?xml version="1.0" encoding="iso-8859-1"?>
<!-- Generator: Adobe Illustrator 19.0.0, SVG Export Plug-In . SVG Version: 6.00 Build 0)  -->
<svg xmlns="http://www.w3.org/2000/svg" xmlns:xlink="http://www.w3.org/1999/xlink" version="1.1" id="Capa_1" x="0px" y="0px" viewBox="0 0 511.999 511.999" style="enable-background:new 0 0 511.999 511.999;" xml:space="preserve" width="512px" height="512px">
<g>
	<g>
		<path d="M211.78,439.892c-0.13-0.64-0.32-1.27-0.57-1.87c-0.25-0.61-0.56-1.19-0.92-1.73c-0.36-0.55-0.78-1.06-1.24-1.52    c-0.46-0.46-0.97-0.88-1.52-1.24c-0.54-0.36-1.13-0.67-1.73-0.92c-0.6-0.25-1.23-0.44-1.87-0.57c-1.29-0.26-2.62-0.26-3.91,0    c-0.64,0.13-1.27,0.32-1.87,0.57s-1.18,0.56-1.72,0.92c-0.55,0.36-1.06,0.78-1.52,1.24c-0.47,0.46-0.88,0.97-1.25,1.52    c-0.36,0.54-0.67,1.12-0.92,1.73c-0.25,0.6-0.44,1.23-0.57,1.87s-0.19,1.3-0.19,1.95s0.06,1.31,0.19,1.96    c0.13,0.63,0.32,1.26,0.57,1.87c0.25,0.6,0.56,1.18,0.92,1.72c0.37,0.55,0.78,1.06,1.25,1.52c0.46,0.46,0.97,0.88,1.52,1.25    c0.54,0.36,1.12,0.67,1.72,0.92c0.6,0.25,1.23,0.44,1.87,0.57c0.65,0.13,1.3,0.19,1.96,0.19c0.65,0,1.31-0.06,1.95-0.19    c0.64-0.13,1.27-0.32,1.87-0.57c0.6-0.25,1.19-0.56,1.73-0.92c0.55-0.37,1.06-0.79,1.52-1.25c0.46-0.46,0.88-0.97,1.24-1.52    c0.36-0.539,0.67-1.12,0.92-1.72c0.25-0.61,0.44-1.24,0.57-1.87c0.13-0.65,0.2-1.31,0.2-1.96S211.91,440.532,211.78,439.892z" fill="#b8c8d4"/>
	</g>
</g>
<g>
	<g>
		<path d="M440.596,152.004c-3.621-6.403-7.041-12.451-8.924-18.252c-2.01-6.191-2.86-13.338-3.76-20.904    c-1.586-13.339-3.227-27.132-11.536-38.549c-8.388-11.525-21.047-17.343-33.289-22.969c-6.874-3.159-13.366-6.143-18.538-9.906    c-5.067-3.688-9.84-8.889-14.894-14.396c-8.736-9.52-18.639-20.31-32.387-24.774c-13.193-4.284-26.701-1.607-39.767,0.982    c-7.604,1.507-14.785,2.93-21.501,2.93c-6.716,0-13.898-1.423-21.501-2.93c-13.066-2.589-26.576-5.267-39.769-0.982    c-13.748,4.464-23.65,15.253-32.385,24.773c-5.054,5.507-9.827,10.709-14.895,14.396c-5.171,3.764-11.664,6.748-18.538,9.906    c-12.243,5.626-24.902,11.443-33.288,22.969c-8.309,11.417-9.95,25.211-11.536,38.549c-0.9,7.566-1.75,14.713-3.76,20.905    c-1.883,5.801-5.303,11.849-8.924,18.252c-6.391,11.302-13.635,24.112-13.635,38.827c0,14.715,7.244,27.526,13.634,38.827    c3.621,6.403,7.041,12.451,8.924,18.252c2.01,6.191,2.86,13.338,3.76,20.904c1.586,13.339,3.227,27.132,11.536,38.549    c8.388,11.525,21.047,17.343,33.289,22.969c3.125,1.436,6.163,2.839,9.042,4.292V502c0,3.511,1.841,6.764,4.851,8.572    c3.009,1.808,6.746,1.905,9.846,0.256l49.326-26.239l49.326,26.239c0.124,0.066,0.254,0.112,0.379,0.173    c0.178,0.085,0.355,0.17,0.536,0.244c0.211,0.086,0.424,0.159,0.639,0.23c0.183,0.061,0.364,0.123,0.55,0.172    c0.221,0.059,0.444,0.103,0.668,0.147c0.184,0.036,0.367,0.076,0.552,0.101c0.23,0.032,0.46,0.046,0.69,0.062    c0.183,0.013,0.364,0.031,0.547,0.033c0.045,0,0.089,0.008,0.134,0.008c0.15,0,0.298-0.023,0.448-0.03    c0.244-0.011,0.488-0.02,0.731-0.049c0.195-0.023,0.387-0.062,0.58-0.097c0.237-0.042,0.473-0.085,0.707-0.144    c0.195-0.05,0.386-0.113,0.578-0.175c0.227-0.073,0.452-0.146,0.675-0.236c0.191-0.077,0.378-0.166,0.566-0.255    c0.136-0.065,0.278-0.115,0.412-0.186l49.326-26.239l49.326,26.239c1.47,0.782,3.085,1.171,4.696,1.171    c1.786,0,3.568-0.478,5.15-1.428c3.01-1.808,4.851-5.062,4.851-8.572V334.625c2.879-1.453,5.917-2.856,9.042-4.292    c12.243-5.626,24.902-11.444,33.289-22.969c8.309-11.418,9.95-25.211,11.536-38.549c0.9-7.566,1.75-14.713,3.76-20.905    c1.883-5.801,5.303-11.849,8.924-18.252c6.391-11.302,13.635-24.112,13.635-38.827    C454.23,176.116,446.987,163.306,440.596,152.004z M246,485.356l-39.326-20.92c-1.468-0.782-3.083-1.172-4.697-1.172    c-1.614,0-3.229,0.391-4.696,1.171l-39.326,20.92V349.903c0.115,0.121,0.229,0.24,0.344,0.362    c0.467,0.497,0.936,0.999,1.406,1.506c0.21,0.226,0.419,0.449,0.629,0.677c0.666,0.722,1.335,1.45,2.01,2.185    c7.898,8.606,16.76,18.234,28.543,23.304c0.363,0.156,0.721,0.319,1.089,0.466v27.108c0,5.523,4.477,10,10,10    c5.523,0,10-4.477,10-10v-23.886c0.231-0.007,0.463-0.02,0.694-0.029c0.324-0.013,0.647-0.032,0.971-0.05    c0.643-0.035,1.285-0.078,1.928-0.129c0.33-0.027,0.659-0.053,0.989-0.083c0.682-0.063,1.363-0.135,2.044-0.213    c0.267-0.031,0.534-0.057,0.801-0.09c0.94-0.115,1.879-0.242,2.817-0.38c0.138-0.02,0.275-0.044,0.413-0.065    c0.813-0.123,1.626-0.253,2.437-0.389c0.317-0.053,0.633-0.109,0.949-0.164c0.647-0.113,1.293-0.227,1.939-0.346    c0.331-0.061,0.663-0.122,0.994-0.184c0.67-0.126,1.338-0.253,2.006-0.383c0.282-0.055,0.565-0.109,0.847-0.164    c0.9-0.176,1.798-0.354,2.694-0.531c0.963-0.191,1.919-0.38,2.869-0.566c0.273-0.053,0.541-0.103,0.813-0.156    c0.681-0.132,1.363-0.264,2.037-0.389c0.347-0.065,0.69-0.124,1.035-0.186c0.59-0.107,1.18-0.215,1.764-0.315    c0.381-0.066,0.757-0.123,1.136-0.185c0.544-0.089,1.089-0.179,1.628-0.26c0.074-0.011,0.146-0.02,0.22-0.03V485.356z     M300.023,467.255l-34.022,18.099V376.337c0.073,0.011,0.145,0.019,0.218,0.03c0.54,0.081,1.086,0.171,1.631,0.26    c0.378,0.062,0.753,0.119,1.132,0.184c0.592,0.102,1.191,0.211,1.789,0.32c0.336,0.061,0.669,0.118,1.007,0.181    c0.721,0.134,1.45,0.275,2.18,0.417c0.221,0.043,0.438,0.083,0.659,0.126c0.954,0.186,1.915,0.377,2.884,0.569    c0.911,0.181,1.825,0.361,2.74,0.54c6.529,1.277,13.154,2.452,19.783,2.661V467.255z M354.043,485.354l-34.021-18.098v-88.852    c11.84-4.732,20.748-14.103,28.643-22.693c0.331-0.36,0.663-0.721,0.99-1.078c0.676-0.736,1.345-1.465,2.012-2.187    c0.209-0.226,0.415-0.447,0.623-0.671c0.471-0.508,0.941-1.012,1.41-1.51c0.115-0.122,0.229-0.241,0.344-0.363V485.354z     M423.186,219.815c-3.949,6.983-8.032,14.204-10.537,21.919c-2.616,8.058-3.624,16.528-4.598,24.72    c-1.343,11.287-2.61,21.948-7.847,29.143c-5.314,7.302-15.104,11.801-25.47,16.564c-5.191,2.386-10.498,4.839-15.535,7.766    c-0.067,0.037-0.137,0.063-0.203,0.101c-0.261,0.153-0.508,0.305-0.763,0.458c-0.122,0.073-0.243,0.145-0.364,0.219    c-0.828,0.501-1.629,1.004-2.4,1.51c-0.094,0.062-0.186,0.125-0.28,0.187c-0.827,0.548-1.632,1.101-2.409,1.667    c0,0.001,0,0.001,0,0.001c-0.835,0.608-1.655,1.236-2.461,1.883c-0.834,0.669-1.651,1.358-2.456,2.061    c-4.643,4.057-8.847,8.634-12.944,13.1c-1.509,1.645-3.002,3.27-4.492,4.844c-6.168,6.517-12.291,12.142-19.335,14.429    c-1.445,0.469-2.96,0.785-4.53,0.988c-7.387,0.952-16.071-0.762-25.174-2.566c-7.189-1.424-14.591-2.891-22.144-3.236    c-1.079-0.049-2.161-0.075-3.246-0.075c-8.679,0-17.174,1.684-25.389,3.311c-11.039,2.188-21.466,4.253-29.703,1.579    c-6.013-1.952-11.355-6.336-16.627-11.631c-2.396-2.407-4.778-5.002-7.202-7.643c-2.061-2.246-4.148-4.52-6.304-6.742    c-0.719-0.741-1.445-1.476-2.181-2.202c-2.943-2.905-6.035-5.669-9.376-8.101c-0.765-0.556-1.56-1.102-2.376-1.644    c-0.112-0.074-0.223-0.15-0.335-0.224c-0.744-0.488-1.518-0.973-2.317-1.458c-0.17-0.103-0.341-0.205-0.512-0.307    c-0.226-0.135-0.444-0.27-0.676-0.405c-0.058-0.034-0.12-0.056-0.179-0.089c-5.044-2.934-10.36-5.391-15.56-7.78    c-10.366-4.764-20.156-9.263-25.47-16.564c-5.237-7.196-6.504-17.856-7.847-29.143c-0.974-8.191-1.981-16.662-4.598-24.719    c-2.505-7.716-6.588-14.937-10.537-21.92c-5.68-10.044-11.044-19.531-11.044-28.984s5.365-18.94,11.044-28.983    c3.949-6.983,8.032-14.204,10.537-21.919c2.616-8.058,3.624-16.528,4.598-24.719c1.343-11.287,2.61-21.948,7.847-29.142    c5.314-7.302,15.104-11.801,25.47-16.565c7.46-3.428,15.175-6.974,21.956-11.908c6.683-4.863,12.366-11.056,17.861-17.044    c7.756-8.451,15.082-16.434,23.828-19.274c8.24-2.676,18.667-0.609,29.704,1.578c8.215,1.628,16.71,3.311,25.389,3.311    c8.679,0,17.174-1.684,25.389-3.311c11.038-2.188,21.464-4.254,29.703-1.579c8.747,2.84,16.073,10.823,23.829,19.275    c5.496,5.988,11.178,12.18,17.861,17.044c6.78,4.935,14.495,8.479,21.955,11.908c10.366,4.763,20.156,9.263,25.47,16.565    c5.237,7.196,6.504,17.856,7.847,29.143c0.974,8.191,1.981,16.661,4.598,24.719c2.505,7.716,6.588,14.936,10.537,21.919    c5.68,10.044,11.044,19.531,11.044,28.983C434.23,200.284,428.866,209.771,423.186,219.815z" fill="#b8c8d4"/>
	</g>
</g>
<g>
	<g>
		<path d="M255.999,38.422c-84.04,0-152.41,68.371-152.41,152.41c0,84.039,68.371,152.41,152.41,152.41s152.41-68.371,152.41-152.41    S340.039,38.422,255.999,38.422z M255.999,323.242c-73.012,0-132.411-59.399-132.411-132.411S182.987,58.42,255.999,58.42    S388.41,117.819,388.41,190.831S329.011,323.242,255.999,323.242z" fill="#b8c8d4"/>
	</g>
</g>
<g>
	<g>
		<path d="M265.799,88.248c-0.12-0.63-0.32-1.26-0.57-1.87c-0.25-0.6-0.56-1.18-0.92-1.72c-0.36-0.55-0.78-1.06-1.24-1.52    c-0.46-0.46-0.97-0.88-1.52-1.25c-0.54-0.36-1.12-0.67-1.73-0.92c-0.6-0.25-1.23-0.44-1.87-0.57c-3.25-0.65-6.7,0.421-9.02,2.74    c-0.46,0.46-0.88,0.97-1.24,1.52c-0.36,0.54-0.67,1.12-0.92,1.72c-0.25,0.61-0.45,1.24-0.57,1.87c-0.13,0.65-0.2,1.31-0.2,1.96    c0,0.65,0.07,1.31,0.2,1.95c0.12,0.64,0.32,1.27,0.57,1.87c0.25,0.61,0.56,1.19,0.92,1.73c0.36,0.55,0.78,1.06,1.24,1.52    c1.86,1.86,4.44,2.93,7.07,2.93c0.65,0,1.31-0.07,1.95-0.2c0.64-0.13,1.27-0.32,1.87-0.57c0.61-0.25,1.19-0.56,1.73-0.92    c0.55-0.36,1.06-0.78,1.52-1.24c0.46-0.46,0.88-0.97,1.24-1.52c0.36-0.54,0.67-1.12,0.92-1.73c0.25-0.6,0.45-1.23,0.57-1.87    c0.13-0.64,0.2-1.3,0.2-1.95C265.999,89.558,265.929,88.898,265.799,88.248z" fill="#b8c8d4"/>
	</g>
</g>
<g>
	<g>
		<path d="M356.625,180.832c-5.523,0-10,4.477-10,10c0,49.971-40.655,90.625-90.626,90.625s-90.626-40.654-90.626-90.625    c0-37.031,23.22-70.977,57.779-84.468c5.145-2.008,7.687-7.807,5.679-12.952s-7.806-7.688-12.952-5.679    c-20.522,8.012-38.054,21.842-50.703,39.996c-12.955,18.595-19.803,40.414-19.803,63.102c0,60.999,49.626,110.625,110.626,110.625    s110.626-49.626,110.626-110.625C366.625,185.309,362.148,180.832,356.625,180.832z" fill="#b8c8d4"/>
	</g>
</g>
<g>
	<g>
		<path d="M320.202,175.462c-1.02-3.137-3.52-5.569-6.683-6.501l-31.001-9.139l-18.271-26.66c-1.863-2.721-4.949-4.347-8.248-4.347    c-3.298,0-6.384,1.626-8.249,4.347l-18.271,26.66l-31,9.139c-3.164,0.933-5.664,3.365-6.683,6.501    c-1.019,3.137-0.426,6.575,1.585,9.188l19.708,25.615l-0.888,32.307c-0.091,3.297,1.45,6.426,4.118,8.365    c2.669,1.939,6.12,2.438,9.229,1.332l30.451-10.829l30.451,10.829c1.09,0.388,2.223,0.578,3.35,0.578    c2.084,0,4.147-0.651,5.879-1.91c2.668-1.939,4.209-5.068,4.118-8.365l-0.888-32.307l19.708-25.615    C320.628,182.036,321.221,178.598,320.202,175.462z M280.891,200.888c-1.403,1.823-2.134,4.074-2.071,6.373l0.585,21.277    l-20.054-7.131c-1.083-0.385-2.217-0.578-3.351-0.578c-1.133,0-2.267,0.193-3.351,0.578l-20.054,7.13l0.585-21.277    c0.064-2.299-0.668-4.55-2.071-6.373l-12.979-16.869l20.417-6.019c2.206-0.65,4.121-2.042,5.421-3.938l12.033-17.557    l12.033,17.557c1.298,1.898,3.213,3.289,5.419,3.939l20.417,6.019L280.891,200.888z" fill="#b8c8d4"/>
	</g>
</g>
<g>
</g>
<g>
</g>
<g>
</g>
<g>
</g>
<g>
</g>
<g>
</g>
<g>
</g>
<g>
</g>
<g>
</g>
<g>
</g>
<g>
</g>
<g>
</g>
<g>
</g>
<g>
</g>
<g>
</g>
</svg>
