<?xml version="1.0" encoding="iso-8859-1"?>
<!-- Generator: Adobe Illustrator 19.0.0, SVG Export Plug-In . SVG Version: 6.00 Build 0)  -->
<svg xmlns="http://www.w3.org/2000/svg" xmlns:xlink="http://www.w3.org/1999/xlink" version="1.1" id="Capa_1" x="0px" y="0px" viewBox="0 0 511.999 511.999" style="enable-background:new 0 0 511.999 511.999;" xml:space="preserve" width="512px" height="512px">
<g>
	<g>
		<path d="M471.11,435.757l-69.534-153.98c0.286-0.365,0.579-0.723,0.854-1.101c7.69-10.566,9.194-23.217,10.649-35.451    c0.813-6.827,1.579-13.276,3.377-18.815c1.683-5.182,4.768-10.637,8.033-16.413c5.861-10.365,12.505-22.114,12.505-35.722    c0-13.609-6.644-25.357-12.505-35.723c-3.266-5.775-6.351-11.231-8.033-16.413c-1.798-5.539-2.565-11.988-3.377-18.815    c-1.455-12.234-2.96-24.885-10.648-35.45c-7.761-10.663-19.895-16.239-30.599-21.159c-6.202-2.85-12.06-5.542-16.685-8.907    c-4.528-3.296-8.835-7.989-13.395-12.956c-8.013-8.731-17.094-18.627-29.812-22.757c-12.212-3.965-24.605-1.51-36.587,0.865    C268.492,4.321,262.01,5.605,256,5.605c-6.011,0-12.492-1.285-19.354-2.644c-11.984-2.375-24.376-4.831-36.588-0.865    c-12.718,4.13-21.8,14.026-29.812,22.757c-4.559,4.968-8.866,9.661-13.395,12.956c-4.624,3.365-10.482,6.057-16.684,8.907    c-10.705,4.92-22.839,10.496-30.598,21.159c-7.689,10.565-9.194,23.216-10.649,35.45c-0.812,6.828-1.579,13.276-3.378,18.816    c-1.683,5.182-4.767,10.637-8.033,16.413c-5.861,10.365-12.504,22.114-12.504,35.721c0,13.609,6.643,25.357,12.504,35.722    c3.266,5.775,6.351,11.231,8.033,16.414c1.798,5.539,2.566,11.988,3.378,18.815c1.144,9.618,2.332,19.489,6.518,28.405    L40.649,445.115c-1.163,3.076-0.738,6.527,1.136,9.23c1.868,2.696,4.939,4.304,8.219,4.304c0.008,0,0.017,0,0.025,0l76.956-0.197    l57.601,51.032c1.85,1.639,4.215,2.515,6.632,2.515c0.8,0,1.605-0.096,2.399-0.292c3.192-0.789,5.793-3.097,6.955-6.174    l52.143-138.017l62.59,138.598c1.353,2.997,4.095,5.137,7.33,5.724c0.595,0.107,1.191,0.16,1.784,0.16    c2.637,0,5.195-1.044,7.089-2.947l54.276-54.555l76.816-4.645c3.282-0.199,6.258-1.999,7.957-4.814    C472.257,442.225,472.464,438.754,471.11,435.757z M123.848,438.462l-59.363,0.152l55.752-147.566    c0.176,0.126,0.359,0.242,0.536,0.367c0.501,0.352,1.005,0.699,1.515,1.036c0.272,0.18,0.546,0.356,0.82,0.532    c0.496,0.318,0.996,0.629,1.498,0.935c0.265,0.161,0.529,0.323,0.796,0.481c0.573,0.339,1.15,0.669,1.729,0.995    c0.19,0.107,0.379,0.218,0.57,0.323c0.768,0.425,1.54,0.838,2.314,1.241c0.197,0.102,0.393,0.2,0.59,0.301    c0.588,0.302,1.176,0.601,1.764,0.893c0.287,0.142,0.574,0.282,0.861,0.422c0.509,0.249,1.016,0.495,1.524,0.737    c0.298,0.142,0.596,0.284,0.893,0.425c0.506,0.239,1.009,0.474,1.512,0.708c0.291,0.136,0.582,0.272,0.872,0.406    c0.389,0.18,0.773,0.356,1.158,0.534c0.326,0.15,0.655,0.302,0.978,0.451c3.876,1.781,7.618,3.5,11.008,5.361    c2.034,1.117,3.942,2.284,5.676,3.546c0.529,0.385,1.053,0.792,1.577,1.213c0.165,0.133,0.33,0.274,0.495,0.41    c0.36,0.298,0.719,0.599,1.077,0.912c0.188,0.164,0.376,0.333,0.564,0.501c0.34,0.305,0.68,0.616,1.02,0.933    c0.184,0.172,0.368,0.345,0.553,0.52c0.359,0.342,0.717,0.691,1.075,1.045c0.158,0.156,0.316,0.309,0.474,0.467    c0.461,0.462,0.923,0.932,1.385,1.411c0.05,0.052,0.1,0.101,0.15,0.153c0.531,0.551,1.063,1.113,1.597,1.682    c0.113,0.121,0.227,0.244,0.341,0.366c0.309,0.331,0.62,0.666,0.931,1.002L123.848,438.462z M186.99,484.896l-44.433-39.366    l9.974-26.398l31.043-82.168c4.576,3.819,9.648,7.073,15.51,9.142l-13.928,36.866c-1.952,5.167,0.654,10.937,5.82,12.889    c1.164,0.44,2.358,0.648,3.533,0.648c4.039,0,7.844-2.466,9.356-6.469l15.768-41.735c0.17-0.014,0.339-0.031,0.509-0.046    c0.738-0.067,1.476-0.144,2.214-0.23c0.125-0.015,0.25-0.027,0.375-0.042c1.84-0.223,3.676-0.501,5.506-0.811    c0.04-0.007,0.08-0.014,0.12-0.021c2.781-0.474,5.548-1.018,8.294-1.562c1.08-0.214,2.149-0.426,3.209-0.631L186.99,484.896z     M255.129,322.957l-0.189,0.005c-0.012,0-0.023-0.002-0.034-0.002c-0.2,0.003-0.398,0.018-0.597,0.023    c-0.674,0.018-1.347,0.04-2.018,0.078c-0.25,0.014-0.5,0.033-0.75,0.049c-0.722,0.048-1.442,0.1-2.16,0.167    c-0.179,0.017-0.357,0.037-0.536,0.055c-0.788,0.079-1.574,0.163-2.357,0.262c-0.066,0.008-0.131,0.018-0.197,0.026    c-4.594,0.587-9.109,1.473-13.535,2.35c-9.907,1.962-19.265,3.817-26.521,1.461c-0.46-0.149-0.916-0.318-1.368-0.499    c-0.174-0.07-0.345-0.15-0.517-0.225c-0.274-0.118-0.549-0.235-0.82-0.365c-0.213-0.102-0.424-0.212-0.635-0.321    c-0.227-0.116-0.453-0.23-0.678-0.354c-0.232-0.127-0.462-0.262-0.692-0.396c-0.2-0.117-0.4-0.234-0.599-0.357    c-0.242-0.149-0.483-0.304-0.723-0.461c-0.184-0.12-0.368-0.242-0.551-0.367c-0.248-0.169-0.495-0.342-0.741-0.518    c-0.173-0.124-0.345-0.251-0.517-0.378c-0.251-0.186-0.501-0.375-0.75-0.568c-0.167-0.13-0.333-0.263-0.499-0.396    c-0.251-0.201-0.501-0.401-0.75-0.609c-0.164-0.137-0.327-0.278-0.49-0.417c-0.249-0.213-0.498-0.425-0.746-0.644    c-0.164-0.145-0.327-0.294-0.49-0.442c-0.245-0.221-0.49-0.44-0.734-0.667c-0.19-0.177-0.38-0.36-0.569-0.54    c-0.376-0.357-0.751-0.719-1.125-1.087c-0.238-0.234-0.476-0.466-0.713-0.704c-0.179-0.18-0.357-0.363-0.536-0.545    c-0.235-0.239-0.47-0.477-0.704-0.719c-0.181-0.187-0.361-0.376-0.542-0.564c-0.232-0.242-0.463-0.484-0.695-0.729    c-0.186-0.197-0.372-0.395-0.559-0.593c-0.225-0.239-0.45-0.479-0.675-0.721c-0.195-0.209-0.39-0.419-0.585-0.63    c-0.205-0.221-0.41-0.443-0.615-0.665c-0.545-0.591-1.089-1.182-1.632-1.774c-5.024-5.475-10.219-11.135-16.365-15.608    c-6.233-4.536-13.283-7.776-20.101-10.909c-1.745-0.802-3.471-1.595-5.156-2.397c-7.3-3.477-13.817-7.125-17.624-12.357    c-0.002-0.003-0.005-0.007-0.007-0.01c-0.29-0.399-0.559-0.801-0.825-1.227c-3.928-6.315-4.999-15.314-6.128-24.807    c-0.89-7.485-1.811-15.225-4.215-22.63c-2.304-7.098-6.037-13.698-9.646-20.082c-5.098-9.015-9.914-17.531-9.914-25.876    s4.815-16.862,9.914-25.878c3.609-6.383,7.342-12.984,9.646-20.081c2.404-7.405,3.325-15.145,4.215-22.63    c1.205-10.131,2.343-19.701,6.96-26.044c4.687-6.439,13.475-10.479,22.78-14.754c6.818-3.133,13.868-6.374,20.101-10.91    c6.145-4.472,11.338-10.131,16.361-15.604c6.962-7.586,13.538-14.752,21.254-17.257c2.426-0.788,5.086-1.105,7.924-1.105    c5.651,0,12.004,1.259,18.6,2.566c7.506,1.488,15.269,3.026,23.242,3.026c7.974,0,15.735-1.538,23.241-3.026    c9.908-1.963,19.268-3.816,26.523-1.461c7.716,2.505,14.292,9.671,21.254,17.257c5.023,5.473,10.217,11.133,16.362,15.604    c6.232,4.536,13.283,7.776,20.101,10.909c9.305,4.276,18.093,8.314,22.779,14.754c4.617,6.344,5.755,15.913,6.96,26.043    c0.891,7.485,1.811,15.225,4.216,22.63c2.304,7.097,6.036,13.697,9.646,20.08c5.099,9.017,9.914,17.533,9.914,25.879    s-4.816,16.862-9.914,25.878c-3.609,6.383-7.342,12.983-9.646,20.08c-2.405,7.405-3.325,15.145-4.216,22.63    c-1.204,10.131-2.343,19.701-6.96,26.044c-0.985,1.354-2.161,2.597-3.476,3.763c-0.469,0.416-0.956,0.821-1.46,1.217    c-0.132,0.104-0.261,0.21-0.395,0.312c-0.574,0.437-1.171,0.863-1.785,1.279c-0.175,0.119-0.354,0.235-0.532,0.353    c-0.573,0.377-1.158,0.748-1.76,1.111c-0.111,0.067-0.219,0.135-0.331,0.201c-0.65,0.385-1.318,0.762-1.998,1.134    c-0.204,0.112-0.408,0.224-0.614,0.335c-0.694,0.373-1.398,0.742-2.118,1.106c-0.169,0.086-0.341,0.17-0.511,0.255    c-0.655,0.327-1.317,0.652-1.989,0.975c-0.155,0.075-0.308,0.15-0.464,0.224c-0.785,0.375-1.58,0.748-2.383,1.121    c-0.2,0.093-0.402,0.186-0.603,0.28c-0.782,0.362-1.567,0.724-2.361,1.089c-6.818,3.133-13.868,6.373-20.101,10.909    c-0.927,0.674-1.826,1.383-2.712,2.107c-4.992,4.076-9.389,8.852-13.656,13.501c-2.369,2.581-4.607,5.018-6.909,7.305    c-0.01,0.01-0.02,0.02-0.03,0.03c-3.336,3.31-6.278,5.731-9.076,7.449c-0.158,0.097-0.317,0.19-0.476,0.283    c-0.358,0.211-0.714,0.408-1.068,0.596c-0.191,0.101-0.382,0.204-0.574,0.299c-0.35,0.174-0.698,0.332-1.045,0.486    c-0.172,0.076-0.343,0.158-0.516,0.229c-0.519,0.213-1.037,0.409-1.554,0.577c-0.737,0.239-1.501,0.425-2.28,0.582    c-1.618,0.326-3.317,0.493-5.093,0.519c-5.262,0.078-11.154-0.988-17.3-2.196c-0.615-0.121-1.232-0.243-1.851-0.366    c-7.506-1.488-15.269-3.026-23.242-3.026C255.709,322.944,255.419,322.95,255.129,322.957z M327.561,484.664l-63.729-141.12    c0.228,0.031,0.456,0.062,0.684,0.095c0.53,0.076,1.062,0.155,1.598,0.24c0.366,0.058,0.732,0.117,1.1,0.179    c0.538,0.091,1.079,0.185,1.623,0.283c0.366,0.066,0.731,0.13,1.099,0.198c0.575,0.107,1.155,0.217,1.736,0.329    c0.344,0.066,0.686,0.13,1.032,0.198c0.45,0.088,0.906,0.178,1.36,0.268c0.429,0.085,0.855,0.168,1.287,0.254    c7.491,1.484,15.14,3,22.805,2.96c4.599-0.024,9.203-0.608,13.783-2.095c0.717-0.233,1.415-0.489,2.105-0.755    c0.16-0.062,0.32-0.125,0.479-0.188c1.439-0.575,2.82-1.218,4.145-1.913c0.037-0.02,0.074-0.039,0.112-0.059    c1.636-0.865,3.191-1.803,4.658-2.794l16.016,35.464l29.973,66.373L327.561,484.664z M387.657,434.349l-48.634-107.693    c0.925-0.994,1.835-1.984,2.73-2.959c3.357-3.658,6.576-7.161,9.848-10.073c0.24-0.213,0.48-0.416,0.72-0.622l21.22,46.989    c1.671,3.698,5.311,5.887,9.12,5.887c1.376,0,2.774-0.286,4.109-0.889c5.034-2.273,7.271-8.196,4.999-13.23l-22.098-48.932    c0.023-0.011,0.047-0.022,0.071-0.033c0.691-0.319,1.387-0.639,2.088-0.962c0.938-0.431,1.89-0.871,2.847-1.315    c0.281-0.13,0.56-0.26,0.841-0.391c0.894-0.418,1.793-0.845,2.694-1.281c0.407-0.196,0.811-0.397,1.216-0.596    c0.54-0.267,1.079-0.539,1.618-0.814c0.793-0.403,1.579-0.818,2.364-1.24c0.366-0.197,0.73-0.395,1.094-0.597    c0.365-0.202,0.736-0.392,1.099-0.599l61.309,135.766L387.657,434.349z" fill="#b8c8d4"/>
	</g>
</g>
<g>
	<g>
		<path d="M256,34.905c-76.849,0-139.369,62.521-139.369,139.369S179.151,313.644,256,313.644s139.369-62.521,139.369-139.369    S332.847,34.905,256,34.905z M256,293.644c-65.821,0-119.37-53.549-119.37-119.37c0-65.821,53.549-119.37,119.37-119.37    s119.37,53.549,119.37,119.37S321.821,293.644,256,293.644z" fill="#b8c8d4"/>
	</g>
</g>
<g>
	<g>
		<path d="M265.799,80.909c-0.12-0.64-0.32-1.27-0.57-1.87s-0.56-1.18-0.92-1.73c-0.359-0.54-0.779-1.06-1.24-1.52    c-0.46-0.46-0.97-0.88-1.52-1.24c-0.54-0.36-1.12-0.67-1.73-0.92c-0.6-0.25-1.229-0.44-1.869-0.57c-1.28-0.26-2.61-0.26-3.9,0    c-0.64,0.13-1.27,0.32-1.87,0.57c-0.61,0.25-1.19,0.56-1.73,0.92c-0.55,0.36-1.06,0.78-1.52,1.24c-0.46,0.46-0.88,0.98-1.24,1.52    c-0.36,0.55-0.67,1.13-0.92,1.73s-0.45,1.23-0.57,1.87c-0.13,0.64-0.2,1.3-0.2,1.95c0,0.66,0.07,1.31,0.2,1.96    c0.12,0.64,0.32,1.271,0.57,1.87c0.25,0.6,0.56,1.18,0.92,1.73c0.36,0.54,0.78,1.05,1.24,1.52c0.46,0.46,0.97,0.88,1.52,1.24    c0.54,0.36,1.12,0.67,1.73,0.92c0.6,0.25,1.23,0.44,1.87,0.57c0.64,0.13,1.3,0.19,1.95,0.19c0.65,0,1.31-0.06,1.95-0.19    c0.64-0.13,1.27-0.32,1.869-0.57c0.61-0.25,1.19-0.56,1.73-0.92c0.55-0.36,1.06-0.78,1.52-1.24c0.461-0.47,0.881-0.98,1.24-1.52    c0.36-0.55,0.67-1.13,0.92-1.73c0.25-0.6,0.45-1.23,0.57-1.87c0.13-0.65,0.2-1.3,0.2-1.96    C265.999,82.209,265.929,81.549,265.799,80.909z" fill="#b8c8d4"/>
	</g>
</g>
<g>
	<g>
		<path d="M347.411,164.275c-5.522,0-10,4.477-10,10c0,44.89-36.52,81.411-81.411,81.411c-44.89,0-81.411-36.521-81.411-81.411    c0-32.302,19.161-61.585,48.813-74.599c5.057-2.219,7.357-8.119,5.138-13.176c-2.219-5.057-8.118-7.358-13.176-5.138    c-36.919,16.204-60.775,52.674-60.775,92.912c0,55.918,45.493,101.411,101.411,101.411s101.411-45.493,101.411-101.411    C357.411,168.752,352.933,164.275,347.411,164.275z" fill="#b8c8d4"/>
	</g>
</g>
<g>
	<g>
		<path d="M315.193,160.029c-1.02-3.137-3.52-5.569-6.684-6.501l-27.849-8.21l-16.413-23.95c-1.865-2.72-4.951-4.347-8.249-4.347    s-6.384,1.626-8.249,4.347l-16.414,23.95l-27.849,8.21c-3.161,0.933-5.661,3.365-6.681,6.501    c-1.019,3.137-0.426,6.575,1.585,9.188l17.705,23.011l-0.798,29.023c-0.091,3.297,1.45,6.426,4.118,8.365    c2.669,1.938,6.121,2.438,9.229,1.332l27.355-9.728l27.355,9.728c1.091,0.388,2.223,0.578,3.35,0.578    c2.084,0,4.146-0.651,5.879-1.91c2.668-1.939,4.209-5.068,4.118-8.365l-0.799-29.023l17.706-23.011    C315.619,166.603,316.212,163.165,315.193,160.029z M277.884,182.851c-1.402,1.823-2.134,4.074-2.07,6.373l0.495,17.993    l-16.959-6.03c-2.167-0.77-4.533-0.77-6.701,0l-16.959,6.031l0.495-17.993c0.063-2.299-0.668-4.55-2.071-6.373l-10.976-14.265    l17.264-5.091c2.206-0.65,4.121-2.041,5.421-3.938L256,144.711l10.175,14.847c1.301,1.897,3.215,3.288,5.422,3.938l17.265,5.09    L277.884,182.851z" fill="#b8c8d4"/>
	</g>
</g>
<g>
	<g>
		<path d="M407.417,387.033c-0.13-0.64-0.32-1.27-0.57-1.87s-0.56-1.18-0.92-1.73c-0.37-0.54-0.79-1.05-1.25-1.52    c-0.46-0.46-0.97-0.87-1.52-1.24c-0.54-0.36-1.12-0.67-1.721-0.92c-0.609-0.25-1.239-0.44-1.88-0.57    c-1.279-0.26-2.609-0.26-3.899,0c-0.641,0.13-1.271,0.32-1.87,0.57c-0.61,0.25-1.19,0.56-1.73,0.92    c-0.55,0.371-1.06,0.78-1.52,1.24c-0.46,0.47-0.88,0.98-1.24,1.52c-0.36,0.55-0.67,1.13-0.92,1.73s-0.44,1.23-0.57,1.87    c-0.13,0.65-0.2,1.3-0.2,1.96c0,0.65,0.07,1.3,0.2,1.95c0.13,0.64,0.32,1.27,0.57,1.87s0.56,1.18,0.92,1.73    c0.36,0.54,0.78,1.06,1.24,1.52c0.46,0.46,0.97,0.88,1.52,1.24c0.54,0.36,1.12,0.67,1.73,0.92c0.6,0.25,1.23,0.44,1.87,0.57    s1.3,0.2,1.949,0.2c0.65,0,1.31-0.07,1.95-0.2c0.641-0.13,1.27-0.32,1.88-0.57c0.6-0.25,1.181-0.56,1.721-0.92    c0.55-0.36,1.06-0.78,1.52-1.24s0.88-0.98,1.25-1.52c0.36-0.55,0.67-1.13,0.92-1.73s0.44-1.23,0.57-1.87    c0.13-0.65,0.19-1.3,0.19-1.95C407.607,388.333,407.547,387.683,407.417,387.033z" fill="#b8c8d4"/>
	</g>
</g>
<g>
	<g>
		<path d="M191.471,418.542c-0.13-0.64-0.32-1.27-0.57-1.87c-0.25-0.61-0.56-1.19-0.92-1.73c-0.36-0.55-0.78-1.06-1.24-1.52    c-0.46-0.46-0.97-0.88-1.52-1.24c-0.54-0.36-1.12-0.67-1.73-0.92c-0.6-0.25-1.23-0.45-1.87-0.57c-1.29-0.26-2.62-0.26-3.91,0    c-0.63,0.12-1.26,0.32-1.87,0.57c-0.6,0.25-1.18,0.56-1.72,0.92c-0.55,0.36-1.059,0.78-1.52,1.24c-0.46,0.46-0.88,0.97-1.25,1.52    c-0.36,0.54-0.67,1.12-0.92,1.73c-0.25,0.6-0.44,1.23-0.57,1.87c-0.13,0.64-0.19,1.3-0.19,1.95c0,0.65,0.06,1.31,0.19,1.95    c0.13,0.64,0.32,1.27,0.57,1.87c0.25,0.61,0.56,1.19,0.92,1.73c0.37,0.55,0.79,1.06,1.25,1.52c0.461,0.46,0.97,0.88,1.52,1.24    c0.54,0.36,1.12,0.67,1.72,0.92c0.61,0.25,1.24,0.45,1.87,0.57c0.65,0.13,1.31,0.2,1.96,0.2c0.65,0,1.31-0.07,1.95-0.2    c0.64-0.12,1.27-0.32,1.87-0.57c0.61-0.25,1.19-0.56,1.73-0.92c0.55-0.36,1.06-0.78,1.52-1.24c0.46-0.46,0.88-0.97,1.24-1.52    c0.36-0.54,0.67-1.12,0.92-1.73c0.25-0.6,0.44-1.23,0.57-1.87c0.13-0.64,0.2-1.3,0.2-1.95    C191.671,419.842,191.601,419.182,191.471,418.542z" fill="#b8c8d4"/>
	</g>
</g>
<g>
</g>
<g>
</g>
<g>
</g>
<g>
</g>
<g>
</g>
<g>
</g>
<g>
</g>
<g>
</g>
<g>
</g>
<g>
</g>
<g>
</g>
<g>
</g>
<g>
</g>
<g>
</g>
<g>
</g>
</svg>
