<?xml version="1.0" encoding="iso-8859-1"?>
<svg xmlns="http://www.w3.org/2000/svg" version="1.1" id="Capa_1" x="0px" y="0px" viewBox="0 0 512 512" style="enable-background:new 0 0 512 512;" width="512px" height="512px">
<g>
	<g>
		<path d="M445.167,5.22c-1.75-3.217-5.12-5.22-8.783-5.22h-43.097c-0.013,0-0.026,0-0.039,0H319.39    c-3.393,0-6.555,1.72-8.397,4.569L256,89.602L201.008,4.569C199.165,1.72,196.004,0,192.611,0H75.616    c-3.663,0-7.033,2.002-8.784,5.22c-1.751,3.217-1.602,7.135,0.387,10.211l106.253,164.293    c-12.981,4.384-22.356,16.668-22.356,31.109c0,15.506,10.808,28.526,25.284,31.947c-40.758,26.419-66.751,72.21-66.751,122.868    C109.649,446.347,175.302,512,256,512s146.352-65.653,146.352-146.352c0-50.658-25.993-96.449-66.751-122.868    c14.476-3.421,25.283-16.441,25.283-31.947c0-14.441-9.376-26.726-22.356-31.109L444.781,15.431    C446.77,12.355,446.918,8.438,445.167,5.22z M93.993,20h93.176l60.434,93.446c0,0,0,0.001,0.001,0.001L289.351,178h-48.584    L171.214,73.174c-3.054-4.603-9.26-5.857-13.861-2.804c-4.602,3.053-5.857,9.259-2.804,13.861L216.765,178h-20.59L93.993,20z     M382.352,365.648C382.352,435.319,325.671,492,256,492c-69.67,0-126.352-56.681-126.352-126.352    c0-57.146,38.297-107.126,93.292-121.982h66.12C344.055,258.523,382.352,308.502,382.352,365.648z M340.883,210.834    c0.001,7.076-5.756,12.833-12.832,12.833h-37.69h-68.723h-37.689c-7.077,0-12.833-5.757-12.833-12.833    c0-7.077,5.757-12.833,12.833-12.833h6.784h116.994h13.539h6.784C335.126,198.001,340.883,203.758,340.883,210.834z M315.825,178    h-2.656l-45.26-69.984L324.831,20H374.7l-48.857,73.633c-3.053,4.602-1.798,10.808,2.805,13.861c1.7,1.129,3.62,1.669,5.52,1.669    c3.238,0,6.417-1.571,8.342-4.472L398.703,20h19.305L315.825,178z" fill="#b8c8d4"/>
	</g>
</g>
<g>
	<g>
		<path d="M256,265.547c-55.197,0-100.101,44.905-100.101,100.101c0,55.196,44.905,100.102,100.102,100.102    c55.197,0,100.102-44.905,100.102-100.102C356.103,310.451,311.197,265.547,256,265.547z M256,445.75    c-44.168,0-80.102-35.934-80.102-80.102c0-44.168,35.934-80.102,80.102-80.102c44.168,0,80.102,35.934,80.102,80.102    C336.102,409.816,300.168,445.75,256,445.75z" fill="#b8c8d4"/>
	</g>
</g>
<g>
	<g>
		<path d="M273.599,317.945h-35.197c-5.523,0-10,4.477-10,10v75.406c0,5.523,4.477,10,10,10h35.197c5.522,0,10-4.477,10-10v-75.406    C283.599,322.422,279.121,317.945,273.599,317.945z M263.599,393.351h-15.197v-55.406h15.197V393.351z" fill="#b8c8d4"/>
	</g>
</g>
<g>
	<g>
		<path d="M152.6,46.48c-0.13-0.64-0.32-1.27-0.57-1.88c-0.25-0.6-0.56-1.18-0.92-1.72c-0.37-0.55-0.79-1.06-1.25-1.52    c-0.46-0.46-0.97-0.88-1.52-1.25c-0.54-0.36-1.12-0.67-1.72-0.91c-0.61-0.25-1.23-0.45-1.87-0.57c-1.29-0.26-2.62-0.26-3.91,0    c-0.64,0.12-1.27,0.32-1.87,0.57c-0.6,0.24-1.19,0.55-1.73,0.91c-0.55,0.37-1.06,0.79-1.52,1.25c-0.46,0.46-0.88,0.97-1.24,1.52    c-0.36,0.54-0.67,1.12-0.92,1.72c-0.25,0.61-0.44,1.24-0.57,1.88c-0.13,0.64-0.2,1.3-0.2,1.95s0.07,1.31,0.2,1.95    s0.32,1.27,0.57,1.87c0.25,0.61,0.56,1.19,0.92,1.73c0.36,0.55,0.78,1.06,1.24,1.52c0.46,0.46,0.97,0.88,1.52,1.24    c0.54,0.36,1.13,0.67,1.73,0.92c0.6,0.25,1.23,0.44,1.87,0.57c0.64,0.13,1.3,0.2,1.95,0.2c0.66,0,1.31-0.07,1.96-0.2    c0.64-0.13,1.26-0.32,1.87-0.57c0.6-0.25,1.18-0.56,1.72-0.92c0.55-0.36,1.06-0.78,1.52-1.24c0.46-0.46,0.88-0.97,1.25-1.52    c0.36-0.54,0.67-1.12,0.92-1.73c0.25-0.6,0.44-1.23,0.57-1.87s0.19-1.3,0.19-1.95S152.73,47.12,152.6,46.48z" fill="#b8c8d4"/>
	</g>
</g>
<g>
	<g>
		<path d="M323.89,127.48c-0.13-0.64-0.32-1.26-0.57-1.87c-0.25-0.6-0.559-1.18-0.92-1.72c-0.359-0.55-0.779-1.06-1.239-1.53    c-0.46-0.46-0.971-0.87-1.521-1.24c-0.54-0.36-1.12-0.67-1.729-0.92c-0.601-0.25-1.23-0.44-1.87-0.57c-1.29-0.26-2.62-0.26-3.91,0    c-0.63,0.13-1.26,0.32-1.87,0.57c-0.6,0.25-1.18,0.56-1.72,0.92c-0.55,0.37-1.06,0.78-1.521,1.24c-0.46,0.47-0.88,0.98-1.25,1.53    c-0.359,0.54-0.67,1.12-0.92,1.72c-0.25,0.61-0.439,1.23-0.569,1.87c-0.131,0.65-0.19,1.31-0.19,1.96c0,0.65,0.06,1.31,0.19,1.95    c0.13,0.64,0.319,1.27,0.569,1.87c0.25,0.61,0.561,1.19,0.92,1.73c0.37,0.55,0.79,1.06,1.25,1.52c0.46,0.46,0.971,0.88,1.521,1.24    c0.54,0.36,1.12,0.67,1.72,0.92c0.61,0.25,1.24,0.44,1.87,0.57c0.65,0.13,1.31,0.2,1.96,0.2c0.65,0,1.31-0.07,1.95-0.2    s1.27-0.32,1.87-0.57c0.609-0.25,1.189-0.56,1.729-0.92c0.55-0.36,1.061-0.78,1.521-1.24c0.46-0.46,0.88-0.97,1.239-1.52    c0.36-0.54,0.67-1.12,0.92-1.73c0.25-0.6,0.441-1.23,0.57-1.87c0.13-0.64,0.2-1.3,0.2-1.95    C324.09,128.79,324.02,128.13,323.89,127.48z" fill="#b8c8d4"/>
	</g>
</g>
</svg>
