<?xml version="1.0" encoding="iso-8859-1"?>
<!-- Generator: Adobe Illustrator 19.0.0, SVG Export Plug-In . SVG Version: 6.00 Build 0)  -->
<svg xmlns="http://www.w3.org/2000/svg" xmlns:xlink="http://www.w3.org/1999/xlink" version="1.1" id="Capa_1" x="0px" y="0px" viewBox="0 0 512 512" style="enable-background:new 0 0 512 512;" xml:space="preserve" width="512px" height="512px">
<g>
	<g>
		<path d="M418.519,116.599c-0.13-0.64-0.319-1.27-0.569-1.87c-0.25-0.6-0.561-1.189-0.92-1.729c-0.36-0.55-0.78-1.06-1.24-1.521    c-0.46-0.46-0.971-0.88-1.521-1.239c-0.54-0.36-1.12-0.671-1.729-0.921c-0.601-0.25-1.23-0.439-1.87-0.569    c-1.29-0.26-2.62-0.26-3.91,0c-0.64,0.13-1.27,0.319-1.87,0.569c-0.6,0.25-1.18,0.561-1.72,0.921    c-0.55,0.359-1.06,0.779-1.521,1.239c-0.47,0.46-0.88,0.971-1.25,1.521c-0.359,0.54-0.67,1.13-0.92,1.729    c-0.25,0.601-0.439,1.231-0.569,1.87c-0.13,0.641-0.19,1.3-0.19,1.95c0,0.66,0.061,1.31,0.19,1.96    c0.13,0.64,0.319,1.26,0.569,1.87c0.25,0.6,0.561,1.18,0.92,1.72c0.37,0.55,0.78,1.061,1.25,1.521    c0.46,0.46,0.971,0.88,1.521,1.25c0.54,0.359,1.12,0.67,1.72,0.92c0.601,0.25,1.23,0.44,1.87,0.569c0.65,0.131,1.3,0.19,1.96,0.19    c0.65,0,1.3-0.06,1.95-0.19c0.64-0.13,1.27-0.319,1.87-0.569c0.609-0.25,1.189-0.561,1.729-0.92c0.55-0.37,1.061-0.79,1.521-1.25    c0.46-0.46,0.88-0.971,1.24-1.521c0.359-0.54,0.67-1.12,0.92-1.72c0.25-0.61,0.439-1.23,0.569-1.87c0.13-0.65,0.2-1.3,0.2-1.96    C418.719,117.899,418.649,117.239,418.519,116.599z" fill="#b8c8d4"/>
	</g>
</g>
<g>
	<g>
		<path d="M471.822,153.04h-8.363V74.068c0-5.522-4.478-10-10-10h-83.125L260.976,1.326c-3.082-1.768-6.871-1.768-9.953,0    L141.666,64.068H58.541c-5.522,0-10,4.478-10,10v78.972h-8.363c-5.522,0-10,4.478-10,10c0,5.522,4.478,10,10,10h8.359v243.793    c0,3.992,2.374,7.602,6.04,9.183l197.462,85.167c1.265,0.545,2.612,0.817,3.961,0.817c1.349,0,2.696-0.273,3.961-0.817    l197.462-85.167c3.666-1.581,6.04-5.19,6.04-9.183V173.04h8.359c5.522,0,10-4.478,10-10    C481.822,157.517,477.344,153.04,471.822,153.04z M256,21.529l74.145,42.539h-148.29L256,21.529z M131.856,437.566l-22.037-9.505    V230.872c0-5.522-4.478-10-10-10c-5.522,0-10,4.478-10,10v188.562l-21.282-9.179V173.04h63.319V437.566z M360.143,446.189    L256,491.109L151.856,446.19V319.989l19.576,25.442c0.71,0.924,1.083,2.071,1.051,3.235l-1.453,52.844    c-0.228,8.27,3.633,16.109,10.325,20.973c6.693,4.863,15.344,6.109,23.137,3.339L254.3,408.11c1.096-0.391,2.304-0.39,3.399-0.001    l49.809,17.713c2.735,0.973,5.576,1.45,8.401,1.45c5.224,0,10.392-1.633,14.735-4.789c6.692-4.863,10.553-12.703,10.325-20.973    l-1.453-52.846c-0.032-1.162,0.341-2.309,1.05-3.231l19.577-25.444V446.189z M320.977,402.059    c0.063,2.325-1.281,3.656-2.089,4.243c-0.807,0.588-2.489,1.454-4.68,0.676l-49.81-17.714c-2.708-0.962-5.554-1.443-8.399-1.443    c-2.845,0-5.691,0.481-8.4,1.444l-49.809,17.713c-2.189,0.778-3.872-0.088-4.68-0.676c-0.808-0.587-2.152-1.918-2.089-4.243    l1.453-52.842c0.159-5.746-1.685-11.42-5.19-15.979l-32.237-41.897c-1.418-1.843-1.112-3.711-0.804-4.66    c0.309-0.949,1.159-2.64,3.389-3.297l50.708-14.947c5.516-1.626,10.342-5.134,13.591-9.875l29.886-43.606    c1.314-1.918,3.185-2.204,4.183-2.204c0.998,0,2.868,0.286,4.183,2.204l29.885,43.605c3.25,4.742,8.076,8.25,13.593,9.876    l50.707,14.947c2.229,0.657,3.08,2.348,3.389,3.297c0.309,0.949,0.614,2.817-0.804,4.66l-32.238,41.899    c-3.505,4.558-5.349,10.232-5.19,15.976L320.977,402.059z M360.143,264.24c-0.041-0.012-0.081-0.028-0.122-0.04l-50.706-14.947    c-1.115-0.329-2.092-1.038-2.749-1.998l-29.886-43.606c-4.677-6.823-12.408-10.897-20.681-10.897    c-8.273,0-16.004,4.074-20.681,10.897l-29.887,43.607c-0.656,0.959-1.633,1.668-2.747,1.997L151.978,264.2    c-0.041,0.012-0.081,0.028-0.122,0.04v-91.2h208.287V264.24z M141.856,153.039H68.541v-24.485h303.013c5.523,0,10-4.478,10-10    c0-5.522-4.477-10-10-10H68.541V84.068h374.918v68.971h-73.315H141.856z M443.462,410.256l-63.319,27.309V173.04h22.037v176.45    c0,5.523,4.478,10,10,10c5.522,0,10-4.477,10-10V173.04h21.282V410.256z" fill="#b8c8d4"/>
	</g>
</g>
<g>
	<g>
		<path d="M338.83,292.831c-1.02-3.137-3.52-5.569-6.684-6.502l-31.063-9.157c-7.518-2.217-14.098-6.997-18.527-13.462    l-18.308-26.712c-1.865-2.721-4.951-4.347-8.249-4.347c-3.298,0-6.384,1.626-8.249,4.347l-18.307,26.711    c-4.43,6.465-11.011,11.246-18.529,13.463l-31.063,9.157c-3.163,0.933-5.663,3.365-6.683,6.502    c-1.018,3.137-0.426,6.574,1.585,9.188l19.748,25.666c4.779,6.211,7.292,13.946,7.077,21.782l-0.89,32.371    c-0.091,3.297,1.45,6.426,4.118,8.364c2.668,1.939,6.119,2.437,9.229,1.332l30.513-10.85c7.373-2.621,15.525-2.621,22.902,0    h-0.001l30.513,10.85c1.091,0.388,2.224,0.578,3.35,0.578c2.084,0,4.147-0.651,5.879-1.91c2.668-1.938,4.209-5.068,4.118-8.365    l-0.892-32.371c-0.214-7.836,2.3-15.571,7.079-21.782l19.747-25.665C339.256,299.405,339.848,295.967,338.83,292.831z     M301.647,315.487c-7.575,9.844-11.56,22.105-11.221,34.526l0.49,17.788l-16.765-5.961h-0.001    c-11.688-4.156-24.615-4.156-36.303,0l-16.765,5.961l0.488-17.786c0.342-12.42-3.643-24.683-11.219-34.527l-10.85-14.102    l17.067-5.031c11.918-3.514,22.349-11.093,29.371-21.34L256,260.339l10.059,14.677c7.023,10.247,17.453,17.825,29.37,21.339    l17.067,5.031L301.647,315.487z" fill="#b8c8d4"/>
	</g>
</g>
<g>
	<g>
		<path d="M106.889,186.64c-0.46-0.46-0.97-0.88-1.52-1.24c-0.54-0.359-1.12-0.67-1.73-0.92c-0.6-0.25-1.229-0.449-1.87-0.569    c-3.25-0.66-6.7,0.409-9.02,2.729c-0.46,0.46-0.88,0.97-1.25,1.521c-0.36,0.54-0.67,1.12-0.92,1.729    c-0.25,0.601-0.44,1.23-0.57,1.87c-0.13,0.64-0.19,1.3-0.19,1.95c0,0.649,0.061,1.309,0.19,1.95    c0.13,0.639,0.321,1.269,0.571,1.87c0.25,0.609,0.56,1.189,0.92,1.729c0.37,0.55,0.79,1.06,1.25,1.521    c0.46,0.46,0.97,0.88,1.52,1.239c0.54,0.36,1.12,0.67,1.721,0.92c0.609,0.25,1.239,0.45,1.88,0.57c0.64,0.13,1.3,0.2,1.949,0.2    c0.65,0,1.311-0.07,1.95-0.2c0.641-0.12,1.271-0.32,1.87-0.57c0.61-0.25,1.19-0.56,1.73-0.92c0.55-0.359,1.06-0.779,1.52-1.239    c0.46-0.461,0.88-0.971,1.24-1.521c0.36-0.54,0.67-1.12,0.92-1.729c0.25-0.601,0.44-1.23,0.57-1.87    c0.13-0.641,0.199-1.301,0.199-1.95C109.819,191.08,108.75,188.5,106.889,186.64z" fill="#b8c8d4"/>
	</g>
</g>
<g>
	<g>
		<path d="M421.979,384.7c-0.12-0.641-0.319-1.271-0.569-1.87c-0.25-0.601-0.551-1.181-0.92-1.73c-0.36-0.54-0.78-1.06-1.24-1.52    c-0.46-0.46-0.97-0.88-1.521-1.24c-0.54-0.36-1.12-0.67-1.729-0.92c-0.601-0.25-1.23-0.44-1.87-0.57c-1.28-0.26-2.61-0.26-3.9,0    c-0.64,0.13-1.27,0.32-1.87,0.57c-0.609,0.25-1.19,0.56-1.73,0.92c-0.55,0.36-1.061,0.78-1.52,1.24    c-0.46,0.46-0.88,0.98-1.25,1.52c-0.35,0.55-0.659,1.13-0.909,1.73c-0.25,0.6-0.45,1.23-0.57,1.87c-0.13,0.64-0.2,1.3-0.2,1.949    c0,0.66,0.07,1.311,0.2,1.96c0.12,0.631,0.32,1.261,0.57,1.87c0.25,0.601,0.56,1.181,0.92,1.721c0.359,0.55,0.779,1.06,1.239,1.52    c0.46,0.47,0.971,0.88,1.52,1.25c0.54,0.36,1.12,0.67,1.73,0.92c0.601,0.25,1.23,0.44,1.87,0.57    c0.641,0.13,1.301,0.189,1.95,0.189c0.65,0,1.311-0.06,1.95-0.189c0.64-0.13,1.27-0.32,1.87-0.57    c0.609-0.25,1.189-0.56,1.729-0.92c0.551-0.37,1.061-0.78,1.521-1.25c0.46-0.46,0.88-0.97,1.24-1.52    c0.359-0.54,0.67-1.12,0.92-1.721c0.25-0.609,0.449-1.239,0.569-1.87c0.13-0.649,0.2-1.3,0.2-1.96    C422.179,386,422.109,385.339,421.979,384.7z" fill="#b8c8d4"/>
	</g>
</g>
<g>
</g>
<g>
</g>
<g>
</g>
<g>
</g>
<g>
</g>
<g>
</g>
<g>
</g>
<g>
</g>
<g>
</g>
<g>
</g>
<g>
</g>
<g>
</g>
<g>
</g>
<g>
</g>
<g>
</g>
</svg>
