<?xml version="1.0" encoding="iso-8859-1"?>
<svg xmlns="http://www.w3.org/2000/svg" version="1.1" id="Capa_1" x="0px" y="0px" viewBox="0 0 512 512" style="enable-background:new 0 0 512 512;" width="512px" height="512px">
<g>
	<g>
		<path d="M385.796,122.085c5.406-7.027,6.998-16.257,4.258-24.688c-2.739-8.433-9.452-14.963-17.956-17.47    c-0.001,0-0.001,0-0.001,0l-56.759-16.733c-1.511-0.444-2.832-1.405-3.723-2.705l-33.452-48.81C273.152,4.366,264.866,0,256,0    c-8.866,0-17.152,4.366-22.164,11.68l-33.452,48.81c-0.891,1.299-2.212,2.26-3.724,2.705l-56.759,16.732    c-8.504,2.507-15.217,9.037-17.956,17.47c-2.74,8.432-1.148,17.661,4.258,24.688l36.084,46.898    c0.961,1.248,1.467,2.803,1.423,4.378l-1.626,59.149c-0.244,8.863,3.893,17.267,11.065,22.478    c4.655,3.383,10.193,5.133,15.792,5.133c3.027,0,6.072-0.512,9.004-1.555l55.752-19.825c1.486-0.527,3.12-0.527,4.604,0    l55.753,19.825c8.352,2.972,17.623,1.633,24.796-3.578c7.173-5.211,11.31-13.614,11.065-22.477l-1.626-59.152    c-0.044-1.573,0.462-3.128,1.423-4.377L385.796,122.085z M333.861,156.786c-3.758,4.885-5.734,10.967-5.563,17.124l1.626,59.151    c0.09,3.266-1.948,5.107-2.829,5.746c-0.88,0.641-3.261,2.008-6.339,0.915l-55.754-19.825c-5.805-2.065-12.198-2.065-18.005,0    l-55.753,19.825c-3.076,1.096-5.458-0.275-6.339-0.915c-0.881-0.64-2.919-2.48-2.829-5.747l1.626-59.148    c0.171-6.159-1.806-12.241-5.563-17.125l-36.084-46.897c-1.992-2.59-1.425-5.278-1.089-6.313c0.337-1.035,1.457-3.543,4.591-4.467    l56.757-16.73c5.911-1.742,11.085-5.501,14.568-10.584l33.452-48.811C252.181,20.291,254.911,20,256,20s3.819,0.291,5.666,2.986    l33.452,48.809c3.483,5.084,8.657,8.843,14.567,10.584l56.758,16.731c3.134,0.924,4.254,3.432,4.591,4.467    c0.336,1.035,0.903,3.723-1.089,6.313L333.861,156.786z" fill="#b8c8d4"/>
	</g>
</g>
<g>
	<g>
		<path d="M347.58,111.196c-1.02-3.137-3.52-5.569-6.684-6.502l-34.77-10.249c-8.677-2.559-16.273-8.077-21.386-15.539l-20.492-29.9    c-1.865-2.721-4.951-4.347-8.249-4.347c-3.298,0-6.384,1.626-8.249,4.347l-20.491,29.9c-5.113,7.462-12.709,12.98-21.387,15.539    l-34.77,10.249c-3.164,0.933-5.664,3.365-6.684,6.502c-1.019,3.137-0.426,6.574,1.585,9.188l22.106,28.73    c5.517,7.17,8.418,16.099,8.17,25.143l-0.996,36.233c-0.091,3.297,1.45,6.426,4.118,8.364c1.732,1.259,3.795,1.91,5.879,1.91    c1.126,0,2.259-0.19,3.35-0.578l34.153-12.145c8.505-3.024,17.924-3.026,26.435,0l34.153,12.145    c3.108,1.104,6.56,0.606,9.229-1.332c2.668-1.938,4.209-5.068,4.118-8.365l-0.997-36.235c-0.248-9.043,2.653-17.971,8.17-25.141    l22.104-28.729C348.006,117.771,348.599,114.333,347.58,111.196z M308.039,136.919c-8.312,10.803-12.684,24.257-12.311,37.885    l0.596,21.651l-20.405-7.256c-0.001,0-0.001,0-0.001-0.001c-6.412-2.279-13.113-3.434-19.918-3.434    c-6.807,0-13.508,1.156-19.918,3.436l-20.405,7.256l0.595-21.649c0.373-13.628-3.999-27.084-12.311-37.887l-13.207-17.164    l20.774-6.125c13.077-3.855,24.523-12.172,32.229-23.417L256,72.351l12.243,17.864c7.706,11.244,19.151,19.561,32.229,23.416    l20.774,6.124L308.039,136.919z" fill="#b8c8d4"/>
	</g>
</g>
<g>
	<g>
		<path d="M266,153.717v-22.76c3.924-1.351,6.749-5.066,6.749-9.449c0-5.522-4.477-10-10-10h-13.498c-5.523,0-10,4.478-10,10    c0,4.383,2.825,8.098,6.749,9.449v22.76c-3.924,1.351-6.749,5.066-6.749,9.449c0,5.523,4.477,10,10,10h13.498    c5.523,0,10-4.477,10-10C272.749,158.783,269.924,155.068,266,153.717z" fill="#b8c8d4"/>
	</g>
</g>
<g>
	<g>
		<path d="M507.656,305.457c4.206-5.467,5.444-12.647,3.313-19.208c-2.131-6.559-7.353-11.64-13.97-13.59l-36.683-10.814    c-0.201-0.06-0.377-0.186-0.493-0.357l-21.622-31.548c-3.899-5.69-10.346-9.088-17.243-9.088c-6.898,0-13.344,3.398-17.243,9.087    l-21.621,31.548c-0.116,0.172-0.292,0.299-0.491,0.358l-36.685,10.815c-6.616,1.949-11.839,7.03-13.971,13.59    c-2.132,6.561-0.894,13.741,3.313,19.208l23.326,30.315c0.125,0.163,0.191,0.368,0.186,0.573l-1.052,38.232    c-0.19,6.896,3.028,13.433,8.609,17.487c3.622,2.631,7.931,3.993,12.285,3.993c2.355,0,4.725-0.398,7.005-1.21l36.035-12.813    c0.197-0.069,0.414-0.068,0.607-0.001l36.036,12.814c6.498,2.311,13.71,1.271,19.29-2.783c5.581-4.054,8.8-10.591,8.61-17.487    l-1.052-38.233c-0.006-0.206,0.06-0.41,0.188-0.575L507.656,305.457z M468.483,323.574c-2.925,3.8-4.462,8.532-4.329,13.323    l1.052,38.231c0.004,0.143,0.013,0.477-0.373,0.757c-0.385,0.28-0.698,0.168-0.834,0.12l-36.038-12.815    c-4.515-1.603-9.487-1.605-14.006,0.001l-36.038,12.815c-0.133,0.048-0.446,0.16-0.833-0.12c-0.385-0.28-0.376-0.613-0.372-0.756    l1.052-38.235c0.131-4.794-1.407-9.525-4.329-13.319l-23.323-30.313c-0.087-0.113-0.291-0.378-0.143-0.831    c0.147-0.453,0.468-0.547,0.604-0.588l36.688-10.815c4.596-1.357,8.621-4.281,11.331-8.234l21.622-31.55    c0.081-0.117,0.27-0.393,0.745-0.393c0.476,0,0.664,0.275,0.745,0.394l21.623,31.55c2.709,3.951,6.733,6.875,11.332,8.232    l36.686,10.815c0.137,0.04,0.456,0.135,0.603,0.588c0.148,0.453-0.057,0.718-0.143,0.831L468.483,323.574z" fill="#b8c8d4"/>
	</g>
</g>
<g>
	<g>
		<path d="M177.74,305.457c4.206-5.467,5.444-12.647,3.313-19.208c-2.132-6.559-7.355-11.641-13.971-13.59l-36.683-10.814    c-0.201-0.06-0.377-0.186-0.493-0.357l-21.622-31.548c-3.899-5.69-10.346-9.088-17.243-9.088c-6.897,0-13.344,3.398-17.243,9.087    l-21.621,31.548c-0.117,0.172-0.293,0.299-0.49,0.357L15,272.659c-6.616,1.95-11.839,7.03-13.97,13.59    c-2.132,6.561-0.894,13.741,3.313,19.208l23.324,30.314c0.126,0.164,0.192,0.368,0.187,0.575l-1.052,38.233    c-0.189,6.896,3.029,13.433,8.61,17.486c3.622,2.632,7.93,3.993,12.285,3.993c2.354,0,4.725-0.398,7.005-1.21l36.034-12.813    c0.198-0.069,0.415-0.068,0.608-0.001l36.036,12.814c6.5,2.311,13.711,1.271,19.291-2.783c5.581-4.055,8.8-10.592,8.609-17.487    l-1.052-38.229c-0.006-0.208,0.061-0.413,0.189-0.579L177.74,305.457z M138.569,323.573c-2.925,3.797-4.463,8.528-4.332,13.325    l1.052,38.232c0.004,0.143,0.013,0.476-0.372,0.756c-0.385,0.28-0.698,0.168-0.834,0.12l-36.04-12.816    c-4.517-1.605-9.489-1.604-14.006,0.001l-36.036,12.815c-0.135,0.048-0.448,0.16-0.834-0.12c-0.386-0.28-0.377-0.614-0.373-0.756    l1.052-38.231c0.133-4.792-1.404-9.525-4.328-13.323l-23.323-30.313c-0.088-0.115-0.292-0.379-0.144-0.832    c0.147-0.453,0.467-0.548,0.604-0.588l36.69-10.815c4.596-1.356,8.619-4.28,11.329-8.232l21.622-31.55    c0.081-0.117,0.27-0.393,0.745-0.393c0.475,0,0.664,0.275,0.745,0.394l21.623,31.55c2.709,3.952,6.733,6.876,11.333,8.232    l36.686,10.815c0.137,0.041,0.457,0.135,0.604,0.588c0.148,0.453-0.057,0.718-0.143,0.831L138.569,323.573z" fill="#b8c8d4"/>
	</g>
</g>
<g>
	<g>
		<path d="M502,409.515H349.432H162.568H10c-5.523,0-10,4.478-10,10V502c0,5.522,4.477,10,10,10h152.568h186.863H502    c5.522,0,10-4.478,10-10v-82.485C512,413.992,507.522,409.515,502,409.515z M152.568,492H20v-21.242h132.568V492z     M152.568,450.758H20v-21.243h132.568V450.758z M339.431,492H172.568v-21.242h166.863V492z M172.568,450.758v-21.243h166.863    v21.243H172.568z M492,492H359.432v-21.242h38.993c5.522,0,10-4.478,10-10c0-5.522-4.478-10-10-10h-38.993v-21.243H492V492z" fill="#b8c8d4"/>
	</g>
</g>
<g>
	<g>
		<path d="M444.559,458.8c-0.13-0.63-0.319-1.26-0.569-1.87c-0.25-0.6-0.561-1.18-0.921-1.72c-0.359-0.55-0.779-1.061-1.239-1.52    c-0.46-0.46-0.971-0.88-1.521-1.25c-0.54-0.359-1.12-0.67-1.729-0.92c-0.601-0.25-1.23-0.439-1.87-0.569    c-1.29-0.261-2.62-0.261-3.91,0c-0.63,0.13-1.26,0.319-1.87,0.569c-0.6,0.25-1.18,0.561-1.72,0.92    c-0.55,0.37-1.061,0.79-1.52,1.25c-0.46,0.46-0.88,0.971-1.25,1.52c-0.359,0.54-0.67,1.12-0.92,1.72    c-0.25,0.61-0.439,1.24-0.569,1.87c-0.131,0.65-0.19,1.31-0.19,1.96c0,0.65,0.06,1.31,0.19,1.95    c0.129,0.64,0.319,1.269,0.569,1.87c0.25,0.609,0.561,1.189,0.92,1.729c0.37,0.55,0.79,1.06,1.25,1.521    c0.46,0.46,0.971,0.88,1.52,1.239c0.54,0.36,1.12,0.671,1.72,0.921c0.61,0.25,1.24,0.439,1.87,0.569c0.65,0.13,1.31,0.2,1.96,0.2    c0.65,0,1.31-0.07,1.95-0.2s1.27-0.319,1.87-0.569c0.609-0.25,1.189-0.561,1.729-0.921c0.55-0.359,1.06-0.779,1.521-1.239    c0.46-0.46,0.88-0.971,1.239-1.521c0.36-0.54,0.671-1.12,0.921-1.729c0.25-0.601,0.439-1.23,0.569-1.87    c0.13-0.641,0.2-1.3,0.2-1.95S444.689,459.45,444.559,458.8z" fill="#b8c8d4"/>
	</g>
</g>
</svg>
