<?xml version="1.0" encoding="utf-8"?>
<svg version="1.1" id="Layer_1" xmlns="http://www.w3.org/2000/svg" x="0px" y="0px"
	 viewBox="0 0 663.3 296" style="enable-background:new 0 0 663.3 296;">
<style type="text/css">
	.st0{fill:#424143;stroke:#424143;stroke-width:2;stroke-linecap:round;stroke-linejoin:round;stroke-miterlimit:10;}
	.st1{fill:#FFFFFF;stroke:#424143;stroke-width:2;stroke-linecap:round;stroke-linejoin:round;stroke-miterlimit:10;}
	.st2{fill:none;stroke:#424143;stroke-width:2;stroke-linecap:round;stroke-linejoin:round;stroke-miterlimit:10;}
	.st3{fill:#FFFFFF;stroke:#424143;stroke-width:3;stroke-linecap:round;stroke-linejoin:round;stroke-miterlimit:10;}
	.st4{fill:#424143;}
	.st5{font-family:'Montserrat-Black';}
	.st6{font-size:10.4599px;}
	.st7{font-family:'Montserrat-Regular';}
</style>
<rect id="XMLID_106_" x="142.1" y="118.5" class="st0" width="65.4" height="35"/>
<rect id="XMLID_93_" x="200.6" y="159.3" class="st1" width="295.1" height="110"/>
<g id="XMLID_87_">
	
		<rect id="XMLID_91_" x="461.3" y="119.9" transform="matrix(0.9909 0.1349 -0.1349 0.9909 21.2608 -61.3946)" class="st1" width="4.5" height="12.5"/>
	<polygon id="XMLID_90_" class="st1" points="460.5,132.1 462.1,136.7 465,132.7 	"/>
	
		<rect id="XMLID_89_" x="463.5" y="100.2" transform="matrix(0.9909 0.1349 -0.1349 0.9909 19.1188 -61.8355)" class="st1" width="4.5" height="19.8"/>
	
		<rect id="XMLID_86_" x="464.7" y="100.3" transform="matrix(0.9909 0.1349 -0.1349 0.9909 17.9187 -62.0826)" class="st1" width="4.5" height="1.7"/>
	<polyline id="XMLID_88_" class="st2" points="464.3,99.9 462.8,99.7 460.5,117 	"/>
	
		<rect id="XMLID_92_" x="466.2" y="95.2" transform="matrix(0.9909 0.1349 -0.1349 0.9909 17.466 -62.1758)" class="st1" width="2.5" height="5.1"/>
</g>
<g id="XMLID_84_">
	
		<rect id="XMLID_63_" x="447.6" y="106.5" transform="matrix(0.9899 -0.1415 0.1415 0.9899 -12.3626 64.841)" class="st1" width="4.5" height="25.8"/>
	<polygon id="XMLID_83_" class="st1" points="449.4,132.4 452.3,136.5 453.9,131.8 	"/>
	
		<rect id="XMLID_82_" x="445.6" y="104.5" transform="matrix(0.9899 -0.1415 0.1415 0.9899 -10.4265 64.4224)" class="st1" width="4.5" height="2.1"/>
	<path id="XMLID_85_" class="st1" d="M447,99.7L447,99.7c-1.2,0.2-2.1,1.3-1.9,2.5l0.4,2.5l4.4-0.6l-0.4-2.5
		C449.4,100.4,448.3,99.6,447,99.7z"/>
</g>
<rect id="XMLID_24_" x="118.9" y="159.3" class="st1" width="69.9" height="45.3"/>
<path id="XMLID_21_" class="st1" d="M406.6,147.5L406.6,147.5c-1.1,0-2-0.9-2-2v-1.9c0-1.1,0.9-2,2-2l0,0c1.1,0,2,0.9,2,2v1.9
	C408.6,146.6,407.7,147.5,406.6,147.5z"/>
<path id="XMLID_20_" class="st2" d="M377.6,147.7H244.3v0c0,3.2,2.6,5.8,5.8,5.8h121.7C375,153.5,377.6,150.9,377.6,147.7
	L377.6,147.7z"/>
<path id="XMLID_17_" class="st1" d="M396.4,34.4c0-7.4-6-13.4-13.4-13.4h-144c-7.4,0-13.4,6-13.4,13.4v72h170.9V34.4z"/>
<g id="XMLID_13_">
	<path id="XMLID_16_" class="st1" d="M230.4,106.4v-72c0-4.7,3.9-8.6,8.6-8.6h144c4.7,0,8.6,3.9,8.6,8.6v72H230.4z"/>
</g>
<path id="XMLID_19_" class="st1" d="M238.9,125.3h144c7.4,0,13.4-6,13.4-13.4v-5.5H225.5v5.5C225.5,119.3,231.5,125.3,238.9,125.3z"
	/>
<polyline id="XMLID_3_" class="st1" points="253.9,153.5 97.7,153.5 97.7,159.3 251.8,159.3 "/>
<polyline id="XMLID_5_" class="st1" points="367.9,153.5 524.2,153.5 524.2,159.3 370.1,159.3 "/>
<path id="XMLID_8_" class="st1" d="M371.8,164.9c-5-21.1-34.8-74.5-60.9-74.5c-26,0-55.8,53.4-60.9,74.5
	c-4.9,20.6,5.9,36.2,27.7,36.2c21.8,0,33.1,0,33.1,0s11.3,0,33.1,0C365.9,201.1,376.7,185.6,371.8,164.9z"/>
<path id="XMLID_9_" class="st2" d="M365.3,189.5c-4.5,5.7-11.9,8.7-21.2,8.7h-66.3c-9.4,0-16.7-3-21.2-8.7
	c-4.6-5.9-5.9-14.3-3.7-23.9"/>
<path id="XMLID_6_" class="st2" d="M363.3,150c2.7,5.9,4.6,11.3,5.7,15.6c0.8,3.6,1.2,7,1.1,10.2"/>
<g id="XMLID_12_">
	<polygon id="XMLID_10_" class="st1" points="287.7,201.1 238.8,292 245.1,292 294,201.1 	"/>
	<polygon id="XMLID_11_" class="st1" points="329.4,201.1 378.3,292 372,292 323.1,201.1 	"/>
	<rect id="XMLID_7_" x="305.5" y="201.1" class="st1" width="6.1" height="90.9"/>
</g>
<line id="XMLID_14_" class="st2" x1="259.5" y1="253.6" x2="358" y2="253.6"/>
<circle id="XMLID_15_" class="st2" cx="382.1" cy="117.1" r="2.4"/>
<path id="XMLID_18_" class="st1" d="M406.7,144h-0.9c-5.2,0-9.5,4.2-9.5,9.5v0h19.8v0C416.2,148.3,412,144,406.7,144z"/>
<path id="XMLID_22_" class="st1" d="M408.9,150.6h0.7c1.9,0,3.8-0.6,5.4-1.8l0,0"/>
<polygon id="XMLID_23_" class="st1" points="593.8,231.6 531.6,231.6 540.2,292 585.2,292 "/>
<rect id="XMLID_27_" x="129.2" y="169.7" class="st1" width="49.2" height="24.6"/>
<path id="XMLID_28_" class="st1" d="M165.2,180h-22.6c-2.1,0-3.9,1.7-3.9,3.9l0,0H169l0,0C169,181.8,167.3,180,165.2,180z"/>
<rect id="XMLID_32_" x="118.9" y="204.6" class="st1" width="69.9" height="45.3"/>
<rect id="XMLID_31_" x="129.2" y="215" class="st1" width="49.2" height="24.6"/>
<path id="XMLID_30_" class="st1" d="M165.2,225.3h-22.6c-2.1,0-3.9,1.7-3.9,3.9l0,0H169l0,0C169,227.1,167.3,225.3,165.2,225.3z"/>
<rect id="XMLID_33_" x="112.9" y="159.3" class="st1" width="6" height="132.7"/>
<rect id="XMLID_35_" x="188.8" y="159.3" class="st1" width="6" height="132.7"/>
<rect id="XMLID_34_" x="501.7" y="159.3" class="st1" width="6" height="132.7"/>
<polygon id="XMLID_49_" class="st2" points="539.1,231.6 534.6,225.7 544,220.1 549.2,221.6 554.7,218.9 554.7,225.7 564.6,231.6 
	"/>
<line id="XMLID_50_" class="st2" x1="549.2" y1="221.6" x2="545.3" y2="223.4"/>
<line id="XMLID_51_" class="st2" x1="554.7" y1="225.7" x2="554.7" y2="228"/>
<polyline id="XMLID_36_" class="st2" points="554.7,221.6 562.7,217.6 568.7,224.2 "/>
<polyline id="XMLID_53_" class="st2" points="566.4,221.6 572.4,218.9 577.4,225.7 574.5,231.6 "/>
<polyline id="XMLID_52_" class="st2" points="575.1,222.5 584.7,221.6 588.9,231.6 "/>
<polyline id="XMLID_29_" class="st2" points="549.2,288.2 582,288.2 587.8,244.8 "/>
<rect id="XMLID_37_" x="531.6" y="231.6" class="st0" width="62.1" height="4.1"/>
<circle id="XMLID_38_" class="st1" cx="457.3" cy="31.8" r="27.8"/>
<circle id="XMLID_39_" class="st1" cx="457.3" cy="31.8" r="22.7"/>
<line id="XMLID_41_" class="st1" x1="457.3" y1="31.8" x2="457.3" y2="16.9"/>
<line id="XMLID_42_" class="st3" x1="457.3" y1="31.8" x2="462.6" y2="37.1"/>
<g id="XMLID_40_">
	<path id="XMLID_44_" class="st4" d="M456.4,51.4c0-0.5,0.4-1,1-1l0,0c0.5,0,1,0.4,1,1l0,0c0,0.5-0.4,1-1,1l0,0
		C456.9,52.4,456.4,52,456.4,51.4z M449.5,50.9c-0.5-0.2-0.7-0.8-0.5-1.3l0,0c0.2-0.5,0.8-0.7,1.3-0.5l0,0c0.5,0.2,0.7,0.8,0.5,1.3
		l0,0c-0.2,0.4-0.5,0.6-0.9,0.6l0,0C449.8,50.9,449.7,50.9,449.5,50.9z M464,50.3c-0.2-0.5,0-1.1,0.5-1.3l0,0c0.5-0.2,1.1,0,1.3,0.5
		l0,0c0.2,0.5,0,1.1-0.5,1.3l0,0c-0.1,0.1-0.2,0.1-0.4,0.1l0,0C464.5,50.9,464.2,50.7,464,50.3z M442.8,46.4L442.8,46.4L442.8,46.4
		c-0.4-0.4-0.4-1,0-1.4l0,0c0.4-0.4,1-0.4,1.4,0l0,0c0.4,0.4,0.4,1,0,1.4l0,0c-0.2,0.2-0.4,0.3-0.7,0.3l0,0
		C443.3,46.7,443,46.6,442.8,46.4z M470.6,46.3c-0.4-0.4-0.4-1,0-1.4l0,0c0.4-0.4,1-0.4,1.4,0l0,0c0.4,0.4,0.4,1,0,1.4l0,0
		c-0.2,0.2-0.4,0.3-0.7,0.3l0,0C471,46.6,470.7,46.5,470.6,46.3z M438.4,39.8c-0.2-0.5,0-1.1,0.5-1.3l0,0c0.5-0.2,1.1,0,1.3,0.5l0,0
		c0.2,0.5,0,1.1-0.5,1.3l0,0c-0.1,0-0.2,0.1-0.4,0.1l0,0C438.9,40.4,438.5,40.2,438.4,39.8z M475.1,40.2c-0.5-0.2-0.7-0.8-0.5-1.3
		l0,0c0.2-0.5,0.8-0.7,1.3-0.5l0,0c0.5,0.2,0.7,0.8,0.5,1.3l0,0c-0.2,0.4-0.5,0.6-0.9,0.6l0,0C475.4,40.3,475.2,40.2,475.1,40.2z
		 M436.8,31.9C436.8,31.9,436.8,31.9,436.8,31.9L436.8,31.9C436.8,31.9,436.8,31.8,436.8,31.9L436.8,31.9L436.8,31.9L436.8,31.9
		c0-0.6,0.4-1,1-1l0,0c0.5,0,1,0.4,1,1l0,0c0,0,0,0,0,0l0,0c0,0,0,0,0,0l0,0c0,0.5-0.4,1-1,1l0,0C437.2,32.9,436.8,32.5,436.8,31.9z
		 M476,31.8c0-0.5,0.4-1,1-1l0,0c0.5,0,1,0.4,1,1l0,0c0,0.5-0.4,1-1,1l0,0C476.4,32.8,476,32.3,476,31.8z M438.9,25.2
		c-0.5-0.2-0.7-0.8-0.5-1.3l0,0c0.2-0.5,0.8-0.7,1.3-0.5l0,0c0.5,0.2,0.7,0.8,0.5,1.3l0,0c-0.2,0.4-0.5,0.6-0.9,0.6l0,0
		C439.1,25.3,439,25.3,438.9,25.2z M474.6,24.7c-0.2-0.5,0-1.1,0.5-1.3l0,0c0.5-0.2,1.1,0,1.3,0.5l0,0c0.2,0.5,0,1.1-0.5,1.3l0,0
		c-0.1,0.1-0.3,0.1-0.4,0.1l0,0C475.1,25.3,474.7,25,474.6,24.7z M442.8,18.7c-0.4-0.4-0.4-1,0-1.4l0,0c0.4-0.4,1-0.4,1.4,0l0,0
		c0.4,0.4,0.4,1,0,1.4l0,0c-0.2,0.2-0.4,0.3-0.7,0.3l0,0C443.2,18.9,443,18.8,442.8,18.7z M470.5,18.6c-0.4-0.4-0.4-1,0-1.4l0,0
		c0.4-0.4,1-0.4,1.4,0l0,0c0.4,0.4,0.4,1,0,1.4l0,0c-0.2,0.2-0.4,0.3-0.7,0.3l0,0C470.9,18.9,470.7,18.8,470.5,18.6z M448.9,14.1
		c-0.2-0.5,0-1.1,0.5-1.3l0,0c0.5-0.2,1.1,0,1.3,0.5l0,0c0.2,0.5,0,1.1-0.5,1.3l0,0c-0.1,0-0.2,0.1-0.4,0.1l0,0
		C449.4,14.7,449.1,14.5,448.9,14.1z M464.5,14.6L464.5,14.6c-0.5-0.2-0.7-0.8-0.5-1.3l0,0c0.2-0.5,0.8-0.7,1.3-0.5l0,0l0,0l0,0
		c0.5,0.2,0.7,0.8,0.5,1.3l0,0c-0.2,0.4-0.5,0.6-0.9,0.6l0,0C464.7,14.7,464.6,14.7,464.5,14.6z M456.4,12.2c0-0.5,0.4-1,1-1l0,0
		c0.5,0,1,0.4,1,1l0,0c0,0.5-0.4,1-1,1l0,0C456.8,13.2,456.4,12.8,456.4,12.2z"/>
</g>
<g id="XMLID_43_">
	<line id="XMLID_77_" class="st1" x1="282" y1="61.4" x2="291.4" y2="70.8"/>
	<line id="XMLID_79_" class="st1" x1="306.6" y1="61.4" x2="316" y2="70.8"/>
	<line id="XMLID_80_" class="st1" x1="314.4" y1="56.9" x2="332.8" y2="75.3"/>
	<line id="XMLID_81_" class="st1" x1="331.8" y1="62.1" x2="339.9" y2="70.2"/>
	<line id="XMLID_78_" class="st1" x1="286.7" y1="53.9" x2="311.2" y2="78.4"/>
</g>
<g id="XMLID_60_">
	<polygon id="XMLID_54_" class="st1" points="468.3,127.6 466,153.5 448.7,153.5 446.2,127.6 	"/>
	<g id="XMLID_59_">
		<line id="XMLID_62_" class="st2" x1="454.3" y1="153.5" x2="453.6" y2="127.6"/>
		<line id="XMLID_61_" class="st2" x1="460.2" y1="153.5" x2="460.9" y2="127.6"/>
	</g>
	<line id="XMLID_58_" class="st2" x1="447.4" y1="132.1" x2="467.3" y2="132.1"/>
	<line id="XMLID_57_" class="st2" x1="447.4" y1="137.5" x2="467.3" y2="137.5"/>
	<line id="XMLID_56_" class="st2" x1="447.9" y1="142.8" x2="466.8" y2="142.8"/>
	<line id="XMLID_55_" class="st2" x1="448.4" y1="148.2" x2="466.3" y2="148.2"/>
	<path id="XMLID_47_" class="st1" d="M469.3,124h-24.2c-1,0-1.8,0.8-1.8,1.8l0,0c0,1,0.8,1.8,1.8,1.8h24.2c1,0,1.8-0.8,1.8-1.8l0,0
		C471.1,124.8,470.3,124,469.3,124z"/>
</g>
<rect id="XMLID_96_" x="138.7" y="117.1" class="st1" width="65.4" height="36.4"/>
<g id="XMLID_99_">
	<path id="XMLID_98_" class="st1" d="M145.7,122.6L145.7,122.6c-1.4,0-2.6-1.2-2.6-2.6v-3.1c0-1.4,1.2-2.6,2.6-2.6h0
		c1.4,0,2.6,1.2,2.6,2.6v3.1C148.3,121.4,147.1,122.6,145.7,122.6z"/>
	<path id="XMLID_100_" class="st1" d="M156,122.6L156,122.6c-1.4,0-2.6-1.2-2.6-2.6v-3.1c0-1.4,1.2-2.6,2.6-2.6l0,0
		c1.4,0,2.6,1.2,2.6,2.6v3.1C158.5,121.4,157.4,122.6,156,122.6z"/>
	<path id="XMLID_101_" class="st1" d="M166.2,122.6L166.2,122.6c-1.4,0-2.6-1.2-2.6-2.6v-3.1c0-1.4,1.2-2.6,2.6-2.6l0,0
		c1.4,0,2.6,1.2,2.6,2.6v3.1C168.8,121.4,167.6,122.6,166.2,122.6z"/>
	<path id="XMLID_102_" class="st1" d="M176.5,122.6L176.5,122.6c-1.4,0-2.6-1.2-2.6-2.6v-3.1c0-1.4,1.2-2.6,2.6-2.6l0,0
		c1.4,0,2.6,1.2,2.6,2.6v3.1C179.1,121.4,177.9,122.6,176.5,122.6z"/>
	<path id="XMLID_103_" class="st1" d="M186.7,122.6L186.7,122.6c-1.4,0-2.6-1.2-2.6-2.6v-3.1c0-1.4,1.2-2.6,2.6-2.6l0,0
		c1.4,0,2.6,1.2,2.6,2.6v3.1C189.3,121.4,188.2,122.6,186.7,122.6z"/>
	<path id="XMLID_104_" class="st1" d="M197,122.6L197,122.6c-1.4,0-2.6-1.2-2.6-2.6v-3.1c0-1.4,1.2-2.6,2.6-2.6l0,0
		c1.4,0,2.6,1.2,2.6,2.6v3.1C199.6,121.4,198.4,122.6,197,122.6z"/>
</g>
<line id="XMLID_112_" class="st2" x1="604.7" y1="292" x2="59.3" y2="292"/>
<line id="XMLID_126_" class="st2" x1="480" y1="137.5" x2="663.3" y2="137.5"/>
<line id="XMLID_129_" class="st2" x1="0" y1="292" x2="37.4" y2="292"/>
<line id="XMLID_130_" class="st2" x1="626" y1="292" x2="663.3" y2="292"/>
<polyline id="XMLID_25_" class="st2" points="480,264.3 490,264.3 490,253.6 "/>
<line id="XMLID_114_" class="st2" x1="490" y1="180" x2="490" y2="159.3"/>
<line id="XMLID_133_" class="st2" x1="206.7" y1="194.3" x2="206.7" y2="223.4"/>
<g id="XMLID_134_">
	<text id="XMLID_26_" transform="matrix(1 0 0 1 161.4006 136.2493)" class="st4 st5 st6">AUG</text>
	<text id="XMLID_135_" transform="matrix(1 0 0 1 166.385 145.9934)" class="st4 st7 st6">17</text>
</g>
</svg>
