<?xml version="1.0" encoding="utf-8"?>
<svg version="1.1" xmlns="http://www.w3.org/2000/svg" x="0px" y="0px" viewBox="-169 292.9 256 256">
<style type="text/css">
	.st0{fill:#C49B73;}
</style>
<g>
	<path class="st0" d="M-23.4,294.2c-69.8-10-134.3,38.5-144.3,108.2c-0.8,6-1.3,12.1-1.3,18.2c-0.1,39.1,17.9,76,48.7,100
		c22.5,17.6,50.2,27.3,78.8,27.4C29,548,86.1,491,86.1,420.6C86.2,357,39.5,303.1-23.4,294.2z M-41.4,530.9
		c-61.1,0-110.5-49.5-110.5-110.4c0-5.3,0.4-10.6,1.1-15.8c8.1-54.2,54.6-94.5,109.4-94.7c61.1,0,110.5,49.5,110.5,110.4
		S19.6,530.9-41.4,530.9z"/>
	<path class="st0" d="M9.6,386.6h-102c-14.1,0-25.5,11.4-25.5,25.5v51c0,14,11.5,25.5,25.5,25.5h102c14.1,0,25.5-11.4,25.5-25.5v-51
		C35.1,397.9,23.6,386.6,9.6,386.6z M18.1,463c0,4.7-3.8,8.5-8.5,8.5h-102c-4.7,0-8.5-3.8-8.5-8.5v-51c0-4.7,3.8-8.5,8.5-8.5h102
		c4.7,0,8.5,3.8,8.5,8.5V463z"/>
	<path class="st0" d="M-41.4,335.6c-23.5,0-42.6,19-42.6,42.5v17c0,4.7,3.8,8.5,8.5,8.5h68.1v-0.2c4.7,0,8.5-3.8,8.5-8.5
		c0-2.3,0-7.5,0-11.8v-5C1.1,354.6-17.9,335.6-41.4,335.6z M-15.9,386.6h-51v-8.5c0-14,11.5-25.5,25.5-25.5s25.5,11.4,25.5,25.5
		V386.6z"/>
	<path class="st0" d="M-41.4,420.5c-4.7,0-8.5,3.8-8.5,8.5v17c0,4.7,3.8,8.5,8.5,8.5s8.5-3.8,8.5-8.5v-17
		C-33,424.3-36.8,420.5-41.4,420.5z"/>
	<path class="st0" d="M-33,420.5h-17c-4.7,0-8.5,3.8-8.5,8.5c0,4.7,3.8,8.5,8.5,8.5h17c4.7,0,8.5-3.8,8.5-8.5
		C-24.5,424.3-28.2,420.5-33,420.5z"/>
</g>
</svg>