<?xml version="1.0" encoding="utf-8"?>
<!-- Generator: Adobe Illustrator 19.0.0, SVG Export Plug-In . SVG Version: 6.00 Build 0)  -->
<svg version="1.1" id="Layer_1" xmlns="http://www.w3.org/2000/svg" xmlns:xlink="http://www.w3.org/1999/xlink" x="0px" y="0px"
	 viewBox="-169 292.9 256 256" style="enable-background:new -169 292.9 256 256;" xml:space="preserve">
<style type="text/css">
	.st0{fill:#00ABD3;}
</style>
<g>
	<path class="st0" d="M-22.9,294.6c-69.8-10-134.3,38.5-144.3,108.1c-0.8,6-1.3,12-1.3,18.2c-0.1,39,17.8,76,48.8,100.1
		c22.5,17.6,50.2,27.3,78.9,27.4c70.4,0,127.4-57,127.4-127.4C86.7,357.4,40,303.5-22.9,294.6z M-41,531.4
		c-61,0-110.6-49.4-110.6-110.4c0-5.3,0.4-10.6,1.1-15.8C-142.4,351-96,310.8-41,310.6C20,310.6,69.6,360,69.6,421
		S20.1,531.4-41,531.4z"/>
	<path class="st0" d="M-45.4,454.8l-42.1-42c-3.3-3.3-8.7-3.3-12.1,0s-3.3,8.7,0,12l42.1,42c3.3,3.3,8.7,3.3,12.1,0
		C-42.1,463.6-42.1,458.2-45.4,454.8z"/>
	<path class="st0" d="M-45.4,466.9l72-71.9c3.3-3.3,3.3-8.7,0-12s-8.7-3.3-12.1,0l-72,71.9c-3.3,3.3-3.3,8.7,0,12
		S-48.7,470.1-45.4,466.9z"/>
</g>
</svg>
