<?xml version="1.0" encoding="utf-8"?>
<!-- Generator: Adobe Illustrator 19.0.0, SVG Export Plug-In . SVG Version: 6.00 Build 0)  -->
<svg version="1.0" id="Layer_1" xmlns="http://www.w3.org/2000/svg" xmlns:xlink="http://www.w3.org/1999/xlink" x="0px" y="0px"
	 viewBox="0 0 160 40" enable-background="new 0 0 595.3 841.9" xml:space="preserve">
<g id="XMLID_2_">
	<path id="XMLID_3_" fill="#F47E52" d="M22.4,6.4c-0.1,0.2-0.3,0.3-0.6,0.3c-0.1,0-0.3-0.1-0.6-0.2c-0.4-0.1-0.7-0.2-1-0.2
		c-1,0-2.2,0.1-3.4,0.2c-1.3,0.1-2.4,0.3-3.2,0.4c0.1,1,0.1,2.6,0.2,4.8c0.1,2.2,0.1,4.5,0.1,6.9c0,1,0,2.1,0,3.4
		c0,1.2-0.1,2-0.1,2.3c0,0.2-0.2,0.4-0.4,0.6c-0.2,0.1-0.5,0.2-0.7,0.2c-0.1,0-0.3-0.1-0.4-0.2c-0.1-0.1-0.2-0.3-0.2-0.4l0-1.1
		c0.1-1.6,0.2-3.7,0.2-6.1c0-1.7,0-3.7-0.1-5.9c0-2.2-0.1-3.6-0.1-4.1c-4.2,0.5-7,0.9-8.4,1.3C3.2,8.6,3,8.7,2.6,8.7
		c-0.4,0-0.7-0.1-1.1-0.4C1.2,8,1,7.7,1,7.4C1,7.2,1.1,7,1.2,6.9c0.1-0.1,0.3-0.1,0.5-0.1c1.2-0.1,2.2-0.1,3-0.2
		c1.9-0.2,4.2-0.4,7.1-0.8c0-0.7,0-1.1,0-1.4C11.9,4.1,11.9,4,12,4c0.4,0,0.8,0.2,1.1,0.5c0.1,0.1,0.1,0.2,0.2,0.5
		c0,0.3,0.1,0.4,0.1,0.5c0.5,0,1.2-0.1,2.3-0.3c2.3-0.4,3.8-0.5,4.7-0.5c1,0,1.7,0.1,2,0.4c0.2,0.2,0.3,0.5,0.3,0.9
		C22.7,6.1,22.6,6.3,22.4,6.4z"/>
	<path id="XMLID_5_" fill="#F47E52" d="M35,14.4c-0.3,1.9-0.4,2.9-0.4,3.1c-0.3,2.6-0.5,4.6-0.6,5.9c-0.1,1.4-0.2,2.6-0.2,3.7
		c0,0.9,0.1,1.6,0.2,2.2c0.1,0.5,0.3,0.9,0.4,1.2c0.2,0.3,0.2,0.5,0.2,0.6c0,0.2-0.2,0.4-0.5,0.5c-0.3,0.1-0.7,0.2-1,0.2
		c-0.3,0-0.5-0.4-0.6-1.1c-0.2-0.7-0.2-1.9-0.2-3.4c0-1.2,0.1-2.8,0.3-4.8l0.5-4.4c-0.6,1.1-1.3,2.1-2.1,3.1c-0.8,1-1.7,1.5-2.6,1.5
		c-0.8,0-1.6-0.7-2.2-2.2c-0.7-1.4-1.2-3.1-1.5-4.9c-0.4-1.8-0.6-3.1-0.6-4c0-0.5,0.2-0.8,0.5-0.8c0.5,0,0.8,0.4,0.9,1.3
		c0.8,5.9,1.9,8.8,3.4,8.8c0.6,0,1.1-0.2,1.5-0.7c0.4-0.5,0.9-1.2,1.5-2.1c0.3-0.4,0.6-1,0.9-1.8c0.3-0.7,0.6-1.3,0.7-1.8l0.2-3.2
		c0-0.5,0.1-0.8,0.2-1c0.1-0.2,0.3-0.3,0.5-0.3c0.2,0,0.4,0.1,0.6,0.4c0.2,0.2,0.3,0.5,0.3,0.7C35.4,11.8,35.3,12.8,35,14.4z"/>
	<path id="XMLID_7_" fill="#F47E52" d="M49.5,21.1c-1.9,0.8-4.5,1.3-7.6,1.6c0,1.4-0.1,2.6-0.1,3.5c0,1.2,0.1,2.3,0.2,3.3
		c0,0.4,0.1,0.6,0.1,0.8c0,0.3-0.1,0.6-0.2,0.9c-0.1,0.2-0.4,0.4-0.6,0.4c-0.4,0-0.6-0.1-0.6-0.4c0-0.4,0-0.9-0.1-1.7
		c0-0.7,0-1.5,0-2.3l0-4.4c-0.1,0-0.3,0-0.6,0c-0.3,0-0.6,0-0.8,0c-0.5,0-0.8-0.3-0.8-1c0-0.5,0.1-0.8,0.4-0.8
		c0.1,0,0.3,0.1,0.8,0.2c0.4,0.1,0.8,0.2,1.1,0.2l0-9c-0.2,0-0.5-0.1-1-0.1c-0.5-0.1-0.9-0.2-1.2-0.3c-0.2-0.1-0.4-0.4-0.4-0.6
		c0-0.5,0.1-0.8,0.3-0.8c0.2,0,0.5,0.1,0.9,0.3c0,0,0.2,0.1,0.4,0.2c0.2,0.1,0.5,0.2,0.9,0.2c0.1-0.3,0.2-0.6,0.4-0.7
		c0.1-0.1,0.3-0.2,0.7-0.2c0.4,0,0.6,0.1,0.6,0.3c0,0.1,0,0.2-0.1,0.3c-0.1,0.2-0.1,0.3-0.1,0.5c1.3,0.2,2.8,0.6,4.4,1.2
		c1.7,0.6,3.1,1.3,4.3,2.2c1.2,0.9,1.8,1.9,1.8,2.9C52.4,19.2,51.4,20.3,49.5,21.1z M49.5,15.4c-1-0.7-2.2-1.3-3.7-1.8
		c-1.4-0.5-2.8-0.8-4.1-1c0,1.2,0.1,2.8,0.1,4.9c0,2,0,3.3,0,4c1.3,0,2.6-0.2,4-0.5c1.4-0.3,2.6-0.8,3.6-1.3c1-0.6,1.5-1.2,1.5-1.9
		C51,16.9,50.5,16.1,49.5,15.4z"/>
	<path id="XMLID_10_" fill="#F47E52" d="M56.9,5.9c0,0-0.3,0-1,0c-0.4,0-0.7-0.1-1.1-0.4c-0.4-0.3-0.6-0.5-0.6-0.7
		c0-0.2,0.1-0.5,0.3-0.7c0.2-0.2,0.4-0.3,0.7-0.3c0.3,0.1,0.6,0.3,0.8,0.5c0.2,0.2,0.4,0.4,0.6,0.7c0.2,0.3,0.3,0.4,0.3,0.5
		C56.9,5.8,56.9,5.9,56.9,5.9z M57.5,25.8C57.3,26,57.1,26,56.8,26c-0.3,0-0.5-0.5-0.6-1.4c-0.1-0.9-0.3-2.7-0.4-5.3
		c-0.1-1.7-0.2-3.4-0.2-5c-0.1-1.6-0.1-2.9-0.1-3.8c0-0.2,0-0.4,0.1-0.5c0.1-0.1,0.2-0.2,0.4-0.2c0.5,0,0.8,0.2,0.9,0.6
		c0.1,0.4,0.2,1.2,0.2,2.3l0,3.7c0,2.1,0.1,3.8,0.2,5.1c0,0.1,0.1,0.7,0.3,2c0.1,0.9,0.2,1.5,0.2,1.8C57.7,25.6,57.6,25.7,57.5,25.8
		z"/>
	<path id="XMLID_13_" fill="#F47E52" d="M72.3,26.1c-0.2,0.2-0.5,0.3-0.8,0.3c-0.2,0-0.4,0-0.5-0.1c-0.1-0.1-0.2-0.2-0.2-0.4
		c0-0.9,0.1-2.2,0.2-4c0.1-1.9,0.2-3.6,0.2-4.8c0-1.2,0-2.3-0.1-3.1c-0.1-0.8-0.2-1.2-0.5-1.2c-0.7,0-1.5,0.9-2.4,2.7
		c-0.9,1.8-1.8,4.1-2.9,7l-0.5,1.3c-0.1,0.2-0.2,0.4-0.4,0.5c-0.2,0.1-0.4,0.2-0.6,0.2c-0.3,0-0.4,0-0.5-0.1c-0.1,0-0.1-0.2-0.2-0.4
		l-0.3-2.6l-0.5-4.6c-0.1-1.8-0.3-3.4-0.5-4.7c-0.1-0.3-0.1-0.6-0.1-0.7c0-0.3,0.1-0.6,0.4-0.8c0.3-0.2,0.6-0.3,0.9-0.3
		c0.2,0,0.4,0.5,0.5,1.5c0.1,1,0.2,2.6,0.3,4.9l0.1,1.7c0.2,2.1,0.3,3.5,0.3,4c0.1-0.1,0.1-0.3,0.2-0.4c0.1-0.2,0.1-0.3,0.2-0.5
		c1.1-3,2.2-5.4,3.2-7.4c1-2,2-3,2.9-3c0.7,0,1.1,0.6,1.3,1.7c0.2,1.1,0.4,2.5,0.5,4.3c0.1,1.9,0.1,4.7,0.1,8.4
		C72.6,25.7,72.5,25.9,72.3,26.1z"/>
	<path id="XMLID_15_" fill="#F47E52" d="M89.4,29.4c-0.7,1.3-1.4,2.4-2.3,3.3c-0.9,0.9-1.9,1.6-2.8,2.1c-1,0.5-1.8,0.8-2.5,0.8
		c-0.4,0-0.7-0.1-0.9-0.3c-0.2-0.2-0.3-0.4-0.3-0.7c0-0.3,0.5-0.5,1.4-0.9c1.4-0.5,2.8-1.2,4-2.3c0.9-0.8,1.6-1.8,2.1-2.9
		c0.4-1.1,0.7-2.2,0.7-3.3c0-1.3-0.1-2.4-0.2-3.5c-0.2-1.1-0.4-2.4-0.7-3.9c-0.4-1.6-0.6-3-0.8-4.1c-0.4,1-0.9,2.1-1.7,3.5
		c-0.7,1.4-1.6,2.7-2.7,4c-1,1.2-1.9,2.1-2.6,2.7c-0.8,0.6-1.6,0.9-2.3,0.9c-0.6,0-1.1-0.2-1.4-0.7c-0.3-0.5-0.5-1.2-0.5-2
		c0-1.4,0.4-3.1,1.3-5.1c0.9-1.9,2-3.6,3.3-5c1.3-1.4,2.6-2.1,3.9-2.1c0.4,0,0.8,0.2,1,0.5c0.2,0.3,0.4,0.7,0.4,1.1
		c0,0.6-0.1,0.9-0.3,0.9c-0.1,0-0.1-0.1-0.2-0.2c-0.1-0.2-0.2-0.3-0.3-0.4c-0.1-0.1-0.3-0.2-0.4-0.2c-1.1,0-2.2,0.6-3.3,1.8
		s-2,2.6-2.8,4.2c-0.7,1.6-1.1,2.9-1.1,4c0,0.6,0.1,1,0.2,1.2c0.2,0.3,0.4,0.4,0.7,0.4c0.5,0,1.1-0.3,1.8-0.9
		c0.7-0.6,1.6-1.5,2.6-2.8c0.9-1.1,1.7-2.4,2.4-3.9c0.7-1.5,1.3-2.9,1.7-4.3c0-0.1,0.1-0.2,0.2-0.3c0.1-0.1,0.2-0.1,0.3-0.1
		c0.2,0,0.4,0.1,0.6,0.2c0.2,0.1,0.3,0.2,0.3,0.4c0,0.1,0,0.2,0,0.3c0,0.1-0.1,0.2-0.1,0.2c0.1,1.2,0.5,3,1,5.4
		c0.4,1.7,0.7,3.2,0.9,4.3c0.2,1.2,0.3,2.3,0.3,3.4C90.4,26.6,90,28.1,89.4,29.4z"/>
	<path id="XMLID_17_" fill="#F47E52" d="M116,13.2c-1,0.9-2.4,1.7-4.2,2.5c-0.7,0.3-1.3,0.6-2,0.8c-0.7,0.3-1.1,0.4-1.3,0.5
		c0.1,2.6,0.2,4.8,0.2,6.6c0,0.6,0.1,1.1,0.2,1.4c0.1,0.4,0.2,0.6,0.2,0.7c0,0.2-0.1,0.4-0.3,0.6c-0.2,0.2-0.5,0.2-0.7,0.2
		c-0.3,0-0.5-0.2-0.6-0.7c0,0,0-0.2-0.1-0.6c-0.1-0.3-0.1-0.8-0.1-1.4c0-1.6-0.1-4.3-0.2-8.1c-0.1-1.9-0.1-3.2-0.1-4
		c0-0.7,0-1.3,0-1.9c0-0.6,0-1,0-1.2c-1.3,0.4-2.5,0.7-3.4,1.1c-0.3,0.1-0.8,0.4-1.3,0.7c-0.3,0.1-0.5,0.3-0.7,0.4
		c-0.2,0.1-0.4,0.2-0.6,0.2c-0.2,0-0.3-0.1-0.4-0.2c-0.1-0.1-0.2-0.3-0.2-0.5c0-0.3,0.4-0.6,1.2-1c0.8-0.4,1.8-0.8,2.9-1.2
		c1.1-0.4,2.2-0.7,3.2-0.9c1.1-0.2,2.4-0.3,3.8-0.3c1.9,0,3.4,0.2,4.5,0.7c1.1,0.5,1.6,1.2,1.6,2.2C117.5,11.2,117,12.3,116,13.2z
		 M114.7,8.7c-0.9-0.3-2-0.4-3.4-0.4c-1,0-2,0.1-3,0.2c0,0.2,0,0.6-0.1,1.2c0,0.6,0,1.2,0,1.7l0,2.3c0,0.5,0,1.1,0,1.9
		c0.4,0,1.4-0.4,2.8-0.9c1.4-0.6,2.6-1.3,3.5-2c0.9-0.7,1.4-1.5,1.4-2.4C116.1,9.5,115.6,9,114.7,8.7z"/>
	<path id="XMLID_20_" fill="#F47E52" d="M122.8,24.9c-0.3,0.1-0.6,0.2-0.9,0.2c-0.3,0-0.5-0.3-0.7-0.9c-0.2-0.6-0.3-1.5-0.3-2.7
		c0-2.4,0.1-5.3,0.1-8.6c0.1-3.4,0.1-5.9,0.1-7.6c0-0.6,0.1-1.2,0.3-1.7c0.2-0.5,0.6-0.8,1.1-0.8c0.2,0,0.3,0.1,0.3,0.3
		c0.1,0.2,0.1,0.5,0.1,1c0,0,0,0.1,0,0.2c0,0.1,0,0.3,0,0.6c-0.4,5.5-0.6,11-0.6,16.2c0,0.7,0.2,1.4,0.5,2.2
		c0.3,0.8,0.5,1.2,0.5,1.2C123.2,24.6,123,24.8,122.8,24.9z"/>
	<path id="XMLID_22_" fill="#F47E52" d="M139.8,23.7c0.1,0.2,0.2,0.3,0.2,0.4c0,0.3-0.1,0.5-0.3,0.9c-0.2,0.3-0.4,0.5-0.6,0.5
		c-0.4,0-0.6-0.2-0.8-0.7c-0.2-0.4-0.3-1-0.3-1.6c0-0.5,0-2,0.1-4.6l0-1.2c0-0.5-0.1-0.8-0.4-1c-0.9,1.6-1.8,3-2.7,4.2
		c-0.8,1.2-1.9,2.3-3.1,3.3c-1.3,1-2.6,1.6-4,1.6c-0.7,0-1.2-0.2-1.6-0.6c-0.4-0.4-0.6-1-0.6-1.6c0-0.8,0.4-2,1.1-3.5
		c0.8-1.5,1.7-3,2.9-4.5c1.2-1.5,2.4-2.7,3.5-3.7c0.8-0.6,1.4-1.1,1.9-1.3c0.5-0.2,0.9-0.3,1.2-0.3c0.3,0,0.7,0.1,1,0.3
		c0.4,0.2,0.7,0.5,0.9,0.9c0.3,0.4,0.4,0.8,0.4,1.3c0,0.7-0.2,1.3-0.5,1.9l0.5-0.2c0.2,0,0.4,0.3,0.4,0.9c0,0.3,0,1,0.1,2.1
		c0,1,0.1,1.9,0.1,2.6c0,0.7,0,1.4,0.1,2c0,0.7,0,1.2,0.1,1.6C139.5,23.4,139.6,23.5,139.8,23.7z M131.6,22.5c1.1-0.8,2-1.9,2.8-3
		c0.8-1.2,1.8-2.6,2.8-4.3c0.3-0.6,0.4-1.3,0.4-2.1c0-0.4-0.1-0.8-0.4-1.2c-0.3-0.3-0.6-0.5-1.1-0.5c-0.5,0-1.2,0.4-2,1.1
		c-0.9,0.8-2,1.9-3,3.2c-1.1,1.3-1.9,2.7-2.6,4c-0.7,1.3-1,2.3-1,3.1c0,0.6,0.3,0.9,0.9,0.9C129.5,23.8,130.6,23.4,131.6,22.5z"/>
	<path id="XMLID_25_" fill="#F47E52" d="M153.3,14.4c-0.3,1.9-0.4,2.9-0.4,3.1c-0.3,2.6-0.5,4.6-0.6,5.9c-0.1,1.4-0.2,2.6-0.2,3.7
		c0,0.9,0.1,1.6,0.2,2.2c0.1,0.5,0.3,0.9,0.4,1.2c0.2,0.3,0.2,0.5,0.2,0.6c0,0.2-0.2,0.4-0.5,0.5c-0.3,0.1-0.7,0.2-1,0.2
		c-0.3,0-0.5-0.4-0.6-1.1c-0.2-0.7-0.2-1.9-0.2-3.4c0-1.2,0.1-2.8,0.3-4.8l0.5-4.4c-0.6,1.1-1.3,2.1-2.1,3.1c-0.8,1-1.7,1.5-2.6,1.5
		c-0.8,0-1.6-0.7-2.2-2.2c-0.7-1.4-1.2-3.1-1.5-4.9c-0.4-1.8-0.6-3.1-0.6-4c0-0.5,0.2-0.8,0.5-0.8c0.5,0,0.8,0.4,0.9,1.3
		c0.8,5.9,1.9,8.8,3.4,8.8c0.6,0,1.1-0.2,1.5-0.7c0.4-0.5,0.9-1.2,1.5-2.1c0.3-0.4,0.6-1,0.9-1.8c0.3-0.7,0.6-1.3,0.7-1.8l0.2-3.2
		c0-0.5,0.1-0.8,0.2-1c0.1-0.2,0.3-0.3,0.5-0.3c0.2,0,0.4,0.1,0.6,0.4c0.2,0.2,0.3,0.5,0.3,0.7C153.6,11.8,153.5,12.8,153.3,14.4z"
		/>
</g>
</svg>
