<?xml version="1.0" encoding="utf-8"?>
<svg version="1.1" id="Layer_1" xmlns="http://www.w3.org/2000/svg" x="0px" y="0px"
	 viewBox="0 0 208.2 365.6" style="enable-background:new 0 0 208.2 365.6;">
<style type="text/css">
	.st0{fill:url(#XMLID_200_);stroke:#E2E2E2;stroke-width:2;stroke-miterlimit:10;}
</style>
<g id="XMLID_11_">
	<linearGradient id="XMLID_200_" gradientUnits="userSpaceOnUse" x1="104.7083" y1="365.6317" x2="104.7083" y2="1.5186">
		<stop  offset="0" style="stop-color:#FFFFFF;stop-opacity:0"/>
		<stop  offset="0.1274" style="stop-color:#F1F1F1;stop-opacity:0.1274"/>
		<stop  offset="0.4961" style="stop-color:#CFCFCF;stop-opacity:0.4961"/>
		<stop  offset="0.8001" style="stop-color:#BABABA;stop-opacity:0.8001"/>
		<stop  offset="1" style="stop-color:#B3B3B3"/>
	</linearGradient>
	<path id="XMLID_12_" class="st0" d="M208.2,349.1l-23.4-85.9c1.6-8.3,3.1-12.3,6.6-18.7c13.4-24.6,8.4-61.6,5.2-87
		c-2.2-20.7-3.5-98.6-3.5-111.9c0-17.3-21.6-19-22.9,0.1l-2.9,71.9l-1,2.3l-0.2,0.1c-0.7,1.1-1.6,1.3-2.6,0.5
		c-2.1-1.7-3-4.9-3.3-6.9c0,0-6.3-79.9-7.3-93.4c-1.4-18.3-23-16.5-23-0.5c0,9.2,2.1,87.5,2.1,87.5c0.1,1.1,0.2,2.2,0.1,3.3
		c0,2.5-1,4.5-3,5.9c-1.9-1.1-2.6-2.8-3-4.9c-2.3-13.8-18-93.9-18.4-96.3c-2.8-19.5-28-17.7-27.1,1.5c0,0,14,86.8,16.4,98.6
		c1.2,5.7-4.6,4.2-4.8-0.3L66.3,43.7c-4-15.8-27.2-13.3-22.9,6.1l21.1,75.6c7.7,23.5-0.5,34.1-0.8,34.4c-0.3,0.2-0.6,0.4-0.9,0.5
		c-3.1,0.2-5.4-1.2-7.1-4.2l-0.3-0.1l-0.3-0.5l-0.2-0.1c-3.8-5.8-7.5-11.7-11.3-17.7c-4.9-7.7-9.3-17.9-17.3-23
		c-6-3.2-15-4.8-20.8-0.9c-0.9,0.6-2.3,1.9-2.9,3c-0.7,1.3-0.7,5.5-1.2,5.8c-0.6,0.4,6.6,10.2,7.1,11c5.5,8.7,7.1,18,10.6,27.2
		c1,2.6,2,5.1,3.5,7.4c2.6,4.1,5.3,9.4,8.5,13.2l6,11l0.2,0.1l0.5,1.3l0.2,0.2c0.9,2.1,2,4.1,3.2,5.9l0.4,0.3l0,0.4l0.3,0.2
		c0.8,2.1,1.6,4.2,2.4,6.3c5.5,13.4,13.4,25.4,23.4,35.8c9.8,12.3,32.5,15.9,35,33.4l13.5,89.2"/>
</g>
</svg>
