<?xml version="1.0" encoding="utf-8"?>
<svg version="1.1" id="Layer_1" xmlns="http://www.w3.org/2000/svg" x="0px" y="0px"
	 viewBox="-49 141 256 256" style="enable-background:new -49 141 256 256;">
<style type="text/css">
	.st0{fill:#c49b73;}
</style>
<g>
	<g>
		<path class="st0" d="M97.1,142.1c-70-10-134.8,38.7-144.8,108.7c-0.8,6-1.3,12.2-1.3,18.3c-0.1,39.3,18,76.4,48.9,100.5
			C22.5,387.3,50.3,397,79,397.1c70.7,0,128-57.3,128-128C207.1,205.2,160.2,151.1,97.1,142.1z M79,379.9
			c-61.3,0-110.9-49.7-110.9-110.9c0-5.3,0.4-10.6,1.1-15.9C-22.7,198.6,24,158.2,79,158c61.3,0,110.9,49.7,110.9,110.9
			S140.3,379.9,79,379.9z"/>
	</g>
</g>
<g>
	<g>
		<path class="st0" d="M130.2,234.9H27.8c-14.1,0-25.6,11.5-25.6,25.6v51.2c0,14.1,11.5,25.6,25.6,25.6h102.4
			c14.1,0,25.6-11.5,25.6-25.6v-51.2C155.8,246.3,144.3,234.9,130.2,234.9z M138.7,311.7c0,4.7-3.8,8.5-8.5,8.5H27.8
			c-4.7,0-8.5-3.8-8.5-8.5v-51.2c0-4.7,3.8-8.5,8.5-8.5h102.4c4.7,0,8.5,3.8,8.5,8.5V311.7z"/>
	</g>
</g>
<g>
	<g>
		<path class="st0" d="M79,183.7c-23.6,0-42.7,19.1-42.7,42.7v17.1c0,4.7,3.8,8.5,8.5,8.5h68.3v-0.2c4.7,0,8.5-3.8,8.5-8.5
			c0-2.3,0-7.5,0-11.9v-5C121.7,202.8,102.6,183.7,79,183.7z M104.6,234.9H53.4v-8.5c0-14.1,11.5-25.6,25.6-25.6
			s25.6,11.5,25.6,25.6V234.9z"/>
	</g>
</g>
<g>
	<g>
		<path class="st0" d="M79,269c-4.7,0-8.5,3.8-8.5,8.5v17.1c0,4.7,3.8,8.5,8.5,8.5s8.5-3.8,8.5-8.5v-17.1
			C87.5,272.8,83.7,269,79,269z"/>
	</g>
</g>
<g>
	<g>
		<path class="st0" d="M87.5,269H70.4c-4.7,0-8.5,3.8-8.5,8.5s3.8,8.5,8.5,8.5h17.1c4.7,0,8.5-3.8,8.5-8.5S92.3,269,87.5,269z"/>
	</g>
</g>
</svg>
