<?xml version="1.0" encoding="iso-8859-1"?>
<!-- Generator: Adobe Illustrator 19.0.0, SVG Export Plug-In . SVG Version: 6.00 Build 0)  -->
<svg xmlns="http://www.w3.org/2000/svg" xmlns:xlink="http://www.w3.org/1999/xlink" version="1.1" id="Capa_1" x="0px" y="0px" viewBox="0 0 511.998 511.998" style="enable-background:new 0 0 511.998 511.998;" xml:space="preserve" width="512px" height="512px">
<g>
	<g>
		<path d="M326.607,443.56c-0.13-0.64-0.319-1.27-0.569-1.87c-0.25-0.6-0.561-1.18-0.92-1.72c-0.37-0.55-0.79-1.06-1.25-1.53    c-2.32-2.32-5.77-3.38-9.02-2.73c-0.64,0.13-1.27,0.32-1.87,0.57c-0.609,0.25-1.189,0.56-1.729,0.92    c-0.55,0.37-1.06,0.78-1.521,1.24c-0.46,0.47-0.88,0.98-1.239,1.53c-0.36,0.54-0.671,1.12-0.921,1.72    c-0.25,0.6-0.439,1.23-0.569,1.87c-0.13,0.65-0.2,1.3-0.2,1.96c0,0.65,0.07,1.3,0.2,1.95c0.13,0.64,0.319,1.27,0.569,1.87    c0.25,0.6,0.561,1.19,0.921,1.73c0.359,0.55,0.779,1.06,1.239,1.52c0.46,0.46,0.971,0.88,1.521,1.24    c0.54,0.36,1.12,0.67,1.729,0.92c0.601,0.25,1.23,0.44,1.87,0.57c0.641,0.13,1.3,0.2,1.95,0.2c2.64,0,5.21-1.07,7.07-2.93    c0.46-0.46,0.88-0.97,1.25-1.52c0.359-0.54,0.67-1.13,0.92-1.73c0.25-0.6,0.439-1.23,0.569-1.87c0.131-0.65,0.19-1.3,0.19-1.95    C326.797,444.86,326.737,444.21,326.607,443.56z" fill="#b8c8d4"/>
	</g>
</g>
<g>
	<g>
		<path d="M308.794,275.437v-7.372c45.618-18.411,79.522-59.932,87.111-109.981c36.833-15.6,61.243-52.082,61.243-92.388V37    c0-5.523-4.478-10-10-10h-49.64V10c0-5.523-4.477-10-10-10H124.49c-5.522,0-10,4.477-10,10v17H64.85c-5.522,0-10,4.477-10,10    v28.696c0,40.307,24.409,76.788,61.243,92.388c7.589,50.049,41.493,91.57,87.111,109.981v7.372    c0,14.632,5.986,27.889,15.634,37.46v66.136h-62.483c-5.523,0-10,4.477-10,10v13.511h-62.03c-3.507,0-6.758,1.837-8.566,4.841    c-1.81,3.004-1.912,6.737-0.272,9.836l21.195,40.05l-21.195,40.05c-1.64,3.1-1.537,6.832,0.272,9.836    c1.809,3.004,5.06,4.841,8.566,4.841h72.03h199.289h72.03c3.507,0,6.758-1.837,8.566-4.841c1.81-3.004,1.912-6.737,0.272-9.836    l-21.195-40.05l21.195-40.05c1.64-3.1,1.537-6.832-0.272-9.836c-1.809-3.004-5.06-4.841-8.566-4.841h-62.03v-13.511    c0-5.523-4.478-10-10-10h-62.483v-66.136C302.808,303.326,308.794,290.069,308.794,275.437z M397.507,47h39.64v18.696    c0,28.707-15.466,54.99-39.64,69.241V47z M114.491,134.937c-24.174-14.25-39.64-40.533-39.64-69.241V47h39.64V134.937z     M146.355,492h-45.424l15.903-30.05c1.548-2.926,1.548-6.429,0-9.355l-15.903-30.05h45.424V492z M365.643,422.545h45.424    l-15.903,30.05c-1.548,2.926-1.548,6.429,0,9.355L411.067,492h-45.424V422.545z M345.642,399.034v13.511h0.002V492h-179.29    v-36.483h114.115c5.522,0,10-4.477,10-10s-4.478-10-10-10H166.354v-22.972v-13.511h62.483h54.322H345.642z M259.471,308.049    c-0.07,0.007-0.14,0.016-0.21,0.022c-0.443,0.044-0.888,0.076-1.336,0.102c-0.108,0.006-0.214,0.015-0.322,0.02    c-0.531,0.026-1.065,0.041-1.603,0.041c-0.538,0-1.072-0.015-1.603-0.041c-0.108-0.005-0.214-0.014-0.322-0.02    c-0.448-0.026-0.893-0.058-1.336-0.102c-0.07-0.007-0.14-0.015-0.21-0.022c-16.457-1.74-29.324-15.699-29.324-32.61v-0.969    c3.522,0.836,7.079,1.522,10.659,2.085c0.252,0.038,0.504,0.082,0.758,0.121c0.805,0.122,1.613,0.232,2.42,0.34    c0.49,0.066,0.98,0.132,1.472,0.193c0.711,0.088,1.424,0.168,2.137,0.245c0.602,0.065,1.204,0.126,1.808,0.184    c0.645,0.061,1.29,0.12,1.936,0.173c0.696,0.057,1.394,0.105,2.093,0.152c0.576,0.038,1.152,0.079,1.729,0.11    c0.824,0.045,1.652,0.077,2.479,0.108c0.464,0.017,0.927,0.04,1.391,0.053c1.3,0.035,2.603,0.056,3.912,0.056    c1.307,0,2.61-0.021,3.909-0.056c0.472-0.013,0.943-0.036,1.415-0.054c0.818-0.03,1.636-0.062,2.451-0.106    c0.589-0.032,1.177-0.073,1.765-0.112c0.682-0.046,1.364-0.093,2.044-0.148c0.666-0.054,1.331-0.115,1.995-0.178    c0.576-0.055,1.151-0.113,1.725-0.176c0.743-0.08,1.486-0.164,2.227-0.255c0.446-0.055,0.89-0.116,1.335-0.175    c0.854-0.114,1.708-0.23,2.56-0.359c0.169-0.026,0.336-0.055,0.504-0.081c3.65-0.568,7.275-1.266,10.866-2.118v0.967    C288.795,292.35,275.928,306.31,259.471,308.049z M273.16,325.359v53.675h-34.322v-53.675c0.099,0.034,0.2,0.063,0.3,0.096    c0.586,0.198,1.174,0.39,1.769,0.568c0.007,0.002,0.013,0.004,0.02,0.005c1.933,0.577,3.912,1.041,5.93,1.395    c0.185,0.033,0.369,0.069,0.555,0.099c0.491,0.081,0.986,0.151,1.482,0.218c0.337,0.046,0.674,0.09,1.013,0.129    c0.419,0.048,0.839,0.094,1.261,0.132c0.466,0.043,0.933,0.076,1.401,0.107c0.325,0.021,0.649,0.046,0.976,0.061    c0.817,0.038,1.636,0.062,2.456,0.062c0.82,0,1.639-0.024,2.456-0.062c0.327-0.015,0.651-0.04,0.976-0.061    c0.468-0.031,0.935-0.064,1.401-0.107c0.422-0.039,0.842-0.084,1.261-0.132c0.338-0.039,0.676-0.083,1.013-0.129    c0.496-0.067,0.991-0.137,1.482-0.218c0.185-0.031,0.37-0.067,0.555-0.099c2.018-0.354,3.997-0.818,5.93-1.395    c0.007-0.002,0.013-0.004,0.02-0.005c0.595-0.178,1.183-0.37,1.769-0.568C272.96,325.422,273.061,325.393,273.16,325.359z     M289.241,253.667c-0.034,0.01-0.068,0.019-0.102,0.028c-1.667,0.473-3.35,0.906-5.044,1.309c-0.47,0.111-0.94,0.221-1.411,0.326    c-1.017,0.229-2.038,0.444-3.064,0.647c-0.858,0.169-1.716,0.334-2.578,0.484c-0.633,0.111-1.269,0.215-1.906,0.317    c-1.2,0.19-2.403,0.37-3.61,0.523c-0.429,0.055-0.861,0.1-1.291,0.15c-1.117,0.13-2.236,0.247-3.358,0.346    c-0.383,0.034-0.765,0.072-1.149,0.102c-1.405,0.111-2.813,0.197-4.225,0.26c-0.334,0.015-0.669,0.026-1.004,0.038    c-1.497,0.054-2.996,0.092-4.5,0.092c-1.504,0-3.003-0.038-4.501-0.092c-0.333-0.012-0.667-0.023-1-0.038    c-1.415-0.063-2.828-0.149-4.236-0.261c-0.374-0.03-0.746-0.066-1.119-0.1c-1.14-0.101-2.278-0.219-3.413-0.352    c-0.393-0.046-0.789-0.085-1.181-0.135c-1.243-0.158-2.482-0.344-3.718-0.539c-0.614-0.098-1.227-0.198-1.838-0.305    c-0.942-0.164-1.882-0.343-2.82-0.529c-0.929-0.186-1.854-0.383-2.775-0.589c-0.529-0.118-1.056-0.241-1.584-0.366    c-1.558-0.371-3.105-0.77-4.639-1.201c-0.16-0.045-0.321-0.087-0.48-0.132c-50.86-14.515-88.205-61.413-88.205-116.869V20h243.018    v18H227.529c-5.523,0-10,4.477-10,10s4.477,10,10,10h149.978v78.781C377.507,192.259,340.133,239.173,289.241,253.667z" fill="#b8c8d4"/>
	</g>
</g>
<g>
	<g>
		<path d="M198.267,40.93c-2.319-2.32-5.77-3.39-9.029-2.73c-0.631,0.12-1.261,0.32-1.87,0.57c-0.601,0.25-1.181,0.56-1.721,0.92    c-0.55,0.36-1.06,0.78-1.52,1.24c-1.86,1.86-2.93,4.44-2.93,7.07c0,0.65,0.06,1.31,0.189,1.95c0.13,0.64,0.32,1.27,0.57,1.87    c0.25,0.61,0.559,1.19,0.92,1.73c0.37,0.55,0.79,1.06,1.25,1.52c0.463,0.46,0.973,0.88,1.522,1.24c0.54,0.36,1.12,0.67,1.721,0.92    c0.609,0.25,1.239,0.45,1.87,0.57c0.649,0.13,1.31,0.2,1.96,0.2c2.63,0,5.21-1.07,7.069-2.93c0.46-0.46,0.88-0.97,1.24-1.52    c0.36-0.54,0.67-1.12,0.92-1.73c0.25-0.6,0.44-1.23,0.57-1.87s0.2-1.3,0.2-1.95C201.198,45.37,200.128,42.79,198.267,40.93z" fill="#b8c8d4"/>
	</g>
</g>
<g>
	<g>
		<path d="M318.871,72.825h-41.915h-41.914h-41.915c-5.522,0-10,4.477-10,10v118c0,5.523,4.478,10,10,10h41.915h41.914h41.915    c5.522,0,10-4.477,10-10v-118C328.871,77.302,324.393,72.825,318.871,72.825z M225.042,190.825h-21.915v-98h21.915V190.825z     M266.956,190.825h-21.914v-98h21.914V190.825z M308.871,190.825h-21.915v-98h21.915V190.825z" fill="#b8c8d4"/>
	</g>
</g>
<g>
</g>
<g>
</g>
<g>
</g>
<g>
</g>
<g>
</g>
<g>
</g>
<g>
</g>
<g>
</g>
<g>
</g>
<g>
</g>
<g>
</g>
<g>
</g>
<g>
</g>
<g>
</g>
<g>
</g>
</svg>
