<?xml version="1.0" encoding="iso-8859-1"?>
<!-- Generator: Adobe Illustrator 19.0.0, SVG Export Plug-In . SVG Version: 6.00 Build 0)  -->
<svg xmlns="http://www.w3.org/2000/svg" xmlns:xlink="http://www.w3.org/1999/xlink" version="1.1" id="Capa_1" x="0px" y="0px" viewBox="0 0 511.999 511.999" style="enable-background:new 0 0 511.999 511.999;" xml:space="preserve" width="512px" height="512px">
<g>
	<g>
		<path d="M298.152,237.262l47.227-3.066c5.013-0.325,9.006-4.319,9.331-9.331l3.067-47.229L389,142.084    c3.315-3.774,3.315-9.423,0-13.197l-31.223-35.553l-3.065-47.228c-0.326-5.012-4.319-9.006-9.332-9.331l-47.228-3.066    L262.598,2.486c-3.775-3.315-9.423-3.315-13.197,0l-35.553,31.223l-47.229,3.066c-5.012,0.325-9.006,4.319-9.331,9.331    l-3.066,47.228L123,128.886c-3.315,3.774-3.315,9.423,0,13.197l31.222,35.553l3.066,47.229c0.325,5.012,4.319,9.005,9.331,9.331    l47.229,3.066L246,265.498v7.485l-38.821,24.4c-0.013,0.008-0.024,0.019-0.038,0.027l-45.664,28.704    c-2.911,1.83-4.678,5.027-4.678,8.466v115.419h-19.3c-5.523,0-10,4.477-10,10v42c0,5.523,4.477,10,10,10h237    c5.523,0,10-4.477,10-10v-42c0-5.523-4.477-10-10-10h-19.3v-115.42c0-3.439-1.767-6.636-4.678-8.466l-45.664-28.704    c-0.013-0.008-0.024-0.019-0.038-0.027L266,272.983v-7.485L298.152,237.262z M176.8,340.105l25.7-16.155v126.049h-25.7V340.105z     M309.5,323.949l25.7,16.155v109.895h-25.7V323.949z M345.2,469.999h19.3v22h-217v-22h19.3H345.2z M289.5,311.378v138.621h-67    V311.378l23.5-14.772v89.56c0,5.523,4.477,10,10,10c5.522,0,10-4.477,10-10v-89.56L289.5,311.378z M256,247.662l-31.51-27.672    c-1.658-1.456-3.75-2.322-5.951-2.465l-41.861-2.718l-2.717-41.861c-0.143-2.201-1.01-4.294-2.465-5.951l-27.672-31.51    l27.673-31.51c1.456-1.657,2.322-3.75,2.465-5.951l2.717-41.861l41.861-2.717c2.201-0.143,4.293-1.01,5.951-2.465L256,23.308    l31.511,27.673c1.657,1.456,3.75,2.322,5.951,2.465l41.86,2.718l2.718,41.86c0.143,2.201,1.009,4.294,2.465,5.951l27.673,31.51    l-27.673,31.511c-1.456,1.657-2.322,3.749-2.465,5.951l-2.719,41.861l-41.859,2.717c-2.201,0.143-4.294,1.01-5.951,2.465    L256,247.662z" fill="#b8c8d4"/>
	</g>
</g>
<g>
	<g>
		<path d="M342.419,128.888l-18.797-21.404l-1.847-28.441c-0.325-5.013-4.318-9.006-9.331-9.332l-28.441-1.847l-21.404-18.797    c-3.773-3.314-9.422-3.315-13.197,0l-21.404,18.797l-28.441,1.846c-5.012,0.325-9.005,4.319-9.331,9.331l-1.847,28.442    l-18.797,21.404c-3.315,3.774-3.315,9.423,0,13.197l18.797,21.404l1.846,28.441c0.325,5.013,4.319,9.006,9.331,9.331l28.441,1.847    l21.405,18.797c1.887,1.658,4.243,2.486,6.599,2.486c2.354,0.001,4.71-0.828,6.597-2.485l21.405-18.797l28.44-1.846    c5.013-0.325,9.006-4.318,9.331-9.331l1.848-28.442l18.797-21.404C345.734,138.311,345.734,132.662,342.419,128.888z     M306.349,152.847c-1.456,1.657-2.322,3.749-2.465,5.951l-1.499,23.074l-23.072,1.497c-2.201,0.143-4.294,1.01-5.951,2.465    L256,201.082l-17.363-15.247c-1.657-1.455-3.749-2.322-5.951-2.465l-23.073-1.498l-1.498-23.074    c-0.143-2.202-1.01-4.294-2.465-5.951l-15.247-17.361l15.247-17.361c1.455-1.657,2.322-3.749,2.465-5.951l1.498-23.074    l23.073-1.498c2.201-0.143,4.294-1.01,5.951-2.465L256,69.889l17.361,15.247c1.657,1.456,3.75,2.322,5.951,2.465l23.074,1.498    l1.497,23.074c0.143,2.201,1.01,4.294,2.466,5.951l15.247,17.361L306.349,152.847z" fill="#b8c8d4"/>
	</g>
</g>
<g>
	<g>
		<path d="M265.799,420.549c-0.12-0.64-0.32-1.27-0.57-1.87c-0.25-0.61-0.56-1.19-0.92-1.73c-0.359-0.55-0.779-1.06-1.24-1.52    c-0.46-0.46-0.97-0.88-1.52-1.24c-0.54-0.36-1.12-0.67-1.73-0.92c-0.6-0.25-1.229-0.45-1.869-0.57c-1.28-0.26-2.61-0.26-3.9,0    c-0.64,0.12-1.27,0.32-1.87,0.57c-0.61,0.25-1.19,0.56-1.73,0.92c-0.55,0.36-1.06,0.78-1.52,1.24c-0.46,0.46-0.88,0.97-1.24,1.52    c-0.36,0.54-0.67,1.12-0.92,1.73c-0.25,0.6-0.45,1.23-0.57,1.87c-0.13,0.64-0.2,1.3-0.2,1.95s0.07,1.31,0.2,1.95    c0.12,0.64,0.32,1.27,0.57,1.87c0.25,0.61,0.56,1.19,0.92,1.73c0.36,0.55,0.78,1.06,1.24,1.52c0.46,0.46,0.97,0.88,1.52,1.24    c0.54,0.36,1.12,0.67,1.73,0.92c0.6,0.25,1.23,0.45,1.87,0.57c0.64,0.13,1.3,0.2,1.95,0.2c0.65,0,1.31-0.07,1.95-0.2    c0.64-0.12,1.27-0.32,1.869-0.57c0.61-0.25,1.191-0.56,1.73-0.92c0.55-0.36,1.06-0.78,1.52-1.24c0.461-0.46,0.881-0.97,1.24-1.52    c0.36-0.54,0.67-1.12,0.92-1.73c0.25-0.6,0.45-1.23,0.57-1.87c0.13-0.64,0.2-1.3,0.2-1.95S265.929,421.189,265.799,420.549z" fill="#b8c8d4"/>
	</g>
</g>
<g>
</g>
<g>
</g>
<g>
</g>
<g>
</g>
<g>
</g>
<g>
</g>
<g>
</g>
<g>
</g>
<g>
</g>
<g>
</g>
<g>
</g>
<g>
</g>
<g>
</g>
<g>
</g>
<g>
</g>
</svg>
