<?xml version="1.0" encoding="iso-8859-1"?>
<!-- Generator: Adobe Illustrator 19.0.0, SVG Export Plug-In . SVG Version: 6.00 Build 0)  -->
<svg xmlns="http://www.w3.org/2000/svg" xmlns:xlink="http://www.w3.org/1999/xlink" version="1.1" id="Capa_1" x="0px" y="0px" viewBox="0 0 512 512" style="enable-background:new 0 0 512 512;" xml:space="preserve" width="512px" height="512px">
<g>
	<g>
		<path d="M371.715,499.629l-20-81.961c-1.093-4.478-5.105-7.629-9.715-7.629h-8.437c-12.781-22.479-31.28-64.449-31.28-100.67    c0-22.565,3.728-45.542,11.067-68.399c17.649-0.627,31.816-15.171,31.816-32.97c0-12.76-7.284-23.843-17.908-29.331    c19.892-18.885,32.315-45.566,32.315-75.095C359.573,46.463,313.11,0,256,0c-57.111,0-103.574,46.463-103.574,103.574    c0,29.529,12.423,56.21,32.315,75.095c-10.623,5.489-17.907,16.572-17.907,29.331c0,17.799,14.167,32.344,31.816,32.97    c7.338,22.858,11.067,45.834,11.067,68.399c0,36.219-18.499,78.19-31.28,100.67H170c-4.61,0-8.622,3.151-9.715,7.629l-20,81.961    c-0.728,2.982-0.045,6.133,1.85,8.547C144.031,510.59,146.931,512,150,512h212c3.069,0,5.969-1.41,7.864-3.824    C371.761,505.762,372.442,502.611,371.715,499.629z M172.426,103.574C172.426,57.491,209.917,20,256,20    c46.082,0,83.573,37.491,83.573,83.574c0,37.291-24.554,68.947-58.34,79.672c-0.24,0.076-0.48,0.154-0.721,0.227    c-1.117,0.343-2.243,0.665-3.38,0.962c-0.324,0.085-0.651,0.16-0.976,0.24c-0.846,0.21-1.697,0.407-2.552,0.591    c-0.409,0.088-0.818,0.179-1.228,0.261c-1.068,0.213-2.142,0.406-3.224,0.577c-0.406,0.064-0.813,0.12-1.22,0.178    c-0.895,0.129-1.794,0.244-2.698,0.344c-0.322,0.036-0.642,0.077-0.964,0.109c-1.174,0.116-2.356,0.204-3.543,0.27    c-0.316,0.018-0.632,0.032-0.948,0.046c-1.254,0.056-2.511,0.096-3.778,0.096c-1.267,0-2.525-0.04-3.778-0.096    c-0.316-0.014-0.632-0.028-0.948-0.046c-1.187-0.067-2.369-0.154-3.543-0.27c-0.322-0.032-0.643-0.074-0.965-0.11    c-0.903-0.1-1.802-0.215-2.697-0.344c-0.407-0.059-0.815-0.114-1.221-0.178c-1.081-0.172-2.156-0.364-3.223-0.577    c-0.411-0.082-0.821-0.173-1.231-0.261c-0.854-0.184-1.704-0.38-2.549-0.59c-0.326-0.081-0.654-0.156-0.979-0.241    c-1.135-0.297-2.261-0.618-3.378-0.961c-0.242-0.074-0.482-0.152-0.724-0.228C196.98,172.519,172.426,140.864,172.426,103.574z     M205.857,221h-6.023c-7.168,0-13-5.831-13-13s5.832-13,13-13h7.468c3.458,1.844,7.02,3.476,10.657,4.911    c0.046,0.018,0.092,0.037,0.138,0.055c0.584,0.23,1.171,0.452,1.76,0.67c0.387,0.145,0.775,0.286,1.163,0.426    c0.422,0.151,0.844,0.302,1.268,0.448c0.699,0.241,1.402,0.473,2.107,0.7c0.163,0.052,0.326,0.108,0.489,0.159    c6.859,2.165,14.025,3.631,21.414,4.32c0.146,0.014,0.293,0.026,0.439,0.039c0.828,0.074,1.658,0.137,2.491,0.192    c0.242,0.016,0.483,0.032,0.725,0.046c0.764,0.044,1.531,0.079,2.3,0.106c0.254,0.009,0.508,0.022,0.762,0.029    c0.992,0.028,1.987,0.046,2.986,0.046c0.999,0,1.994-0.018,2.986-0.046c0.255-0.007,0.509-0.02,0.763-0.029    c0.768-0.027,1.534-0.062,2.298-0.106c0.243-0.014,0.485-0.03,0.728-0.046c0.829-0.054,1.656-0.117,2.48-0.191    c0.151-0.013,0.303-0.026,0.454-0.04c7.379-0.689,14.536-2.152,21.387-4.313c0.197-0.062,0.393-0.129,0.589-0.192    c0.67-0.216,1.339-0.436,2.003-0.666c0.444-0.152,0.887-0.31,1.329-0.469c0.365-0.131,0.728-0.265,1.091-0.4    c0.608-0.226,1.216-0.456,1.82-0.693c0.015-0.006,0.03-0.012,0.045-0.018c3.661-1.441,7.246-3.083,10.725-4.938h7.468    c7.168,0,13,5.831,13,13s-5.832,13-13,13h-6.023H205.857z M229.717,309.369c0-22.615-3.4-45.553-10.121-68.369h72.807    c-6.721,22.815-10.12,45.753-10.12,68.369c0,33.95,13.95,72.526,28.504,100.67H266V308.833c0-5.523-4.478-10-10-10    c-5.523,0-10,4.477-10,10v101.206h-44.788C215.767,381.894,229.717,343.317,229.717,309.369z M162.733,492l5.124-21H271.27    c5.523,0,10-4.477,10-10s-4.477-10-10-10h-98.532l5.115-20.961h6.311h143.672h6.311L349.267,492H162.733z" fill="#b8c8d4"/>
	</g>
</g>
<g>
	<g>
		<path d="M256,40.356c-34.858,0-63.217,28.359-63.217,63.217c0,34.858,28.359,63.218,63.217,63.218    c34.857,0,63.217-28.359,63.217-63.217C319.217,68.716,290.857,40.356,256,40.356z M256,146.79    c-23.83,0-43.217-19.387-43.217-43.217c0-23.829,19.387-43.217,43.217-43.217s43.217,19.387,43.217,43.217    S279.83,146.79,256,146.79z" fill="#b8c8d4"/>
	</g>
</g>
<g>
	<g>
		<path d="M265.799,270.55c-0.12-0.64-0.32-1.27-0.57-1.87c-0.25-0.61-0.56-1.19-0.92-1.73c-0.359-0.55-0.779-1.06-1.24-1.52    c-0.46-0.46-0.97-0.88-1.519-1.24c-0.54-0.37-1.12-0.67-1.731-0.92c-0.6-0.25-1.229-0.45-1.869-0.57c-1.28-0.26-2.61-0.26-3.9,0    c-0.64,0.12-1.27,0.32-1.87,0.57c-0.61,0.25-1.19,0.55-1.73,0.92c-0.55,0.36-1.06,0.78-1.52,1.24c-0.46,0.46-0.88,0.97-1.24,1.52    c-0.36,0.54-0.67,1.12-0.92,1.73c-0.25,0.6-0.45,1.23-0.57,1.87c-0.13,0.64-0.2,1.3-0.2,1.95c0,0.65,0.07,1.31,0.2,1.95    c0.12,0.64,0.32,1.27,0.57,1.87c0.25,0.61,0.56,1.19,0.92,1.73c0.36,0.55,0.78,1.06,1.24,1.52c0.46,0.46,0.97,0.88,1.52,1.24    c0.54,0.36,1.12,0.67,1.73,0.92c0.6,0.25,1.23,0.45,1.87,0.57c0.64,0.13,1.3,0.2,1.95,0.2c0.65,0,1.31-0.07,1.95-0.2    c0.64-0.12,1.27-0.32,1.869-0.57c0.61-0.25,1.191-0.56,1.731-0.92c0.55-0.36,1.06-0.78,1.519-1.24    c0.461-0.46,0.881-0.97,1.24-1.52c0.36-0.54,0.67-1.12,0.92-1.73c0.25-0.6,0.45-1.23,0.57-1.87c0.13-0.64,0.2-1.3,0.2-1.95    S265.929,271.19,265.799,270.55z" fill="#b8c8d4"/>
	</g>
</g>
<g>
	<g>
		<path d="M317.41,459.05c-0.13-0.64-0.32-1.27-0.57-1.87c-0.25-0.61-0.56-1.19-0.92-1.73c-0.37-0.55-0.79-1.06-1.25-1.52    c-0.46-0.46-0.97-0.88-1.521-1.24c-0.54-0.36-1.119-0.67-1.72-0.92c-0.61-0.25-1.24-0.45-1.87-0.57c-1.29-0.26-2.62-0.26-3.91,0    c-0.64,0.12-1.27,0.32-1.869,0.57c-0.61,0.25-1.19,0.56-1.73,0.92c-0.55,0.36-1.06,0.78-1.52,1.24    c-0.461,0.46-0.881,0.97-1.24,1.52c-0.36,0.54-0.67,1.12-0.92,1.73c-0.25,0.6-0.44,1.23-0.57,1.87s-0.2,1.3-0.2,1.95    c0,0.65,0.07,1.31,0.2,1.95s0.32,1.27,0.57,1.87c0.25,0.61,0.56,1.19,0.92,1.73c0.359,0.55,0.779,1.06,1.24,1.52    c0.46,0.46,0.97,0.88,1.52,1.24c0.54,0.36,1.12,0.67,1.73,0.92c0.6,0.25,1.23,0.45,1.869,0.57c0.641,0.13,1.301,0.2,1.95,0.2    c0.65,0,1.311-0.07,1.96-0.2c0.63-0.12,1.26-0.32,1.87-0.57c0.601-0.25,1.18-0.56,1.72-0.92c0.551-0.36,1.061-0.78,1.521-1.24    c0.46-0.46,0.88-0.97,1.25-1.52c0.36-0.54,0.67-1.12,0.92-1.73c0.25-0.6,0.44-1.23,0.57-1.87c0.13-0.64,0.189-1.3,0.189-1.95    S317.539,459.69,317.41,459.05z" fill="#b8c8d4"/>
	</g>
</g>
<g>
</g>
<g>
</g>
<g>
</g>
<g>
</g>
<g>
</g>
<g>
</g>
<g>
</g>
<g>
</g>
<g>
</g>
<g>
</g>
<g>
</g>
<g>
</g>
<g>
</g>
<g>
</g>
<g>
</g>
</svg>
