<?xml version="1.0" encoding="utf-8"?>
<!-- Generator: Adobe Illustrator 19.0.0, SVG Export Plug-In . SVG Version: 6.00 Build 0)  -->
<svg version="1.1" id="Layer_1" xmlns="http://www.w3.org/2000/svg" xmlns:xlink="http://www.w3.org/1999/xlink" x="0px" y="0px"
	 viewBox="-64 238.3 205.3 365.6" style="enable-background:new -64 238.3 205.3 365.6;" xml:space="preserve">
<style type="text/css">
	.st0{fill:url(#XMLID_2_);stroke:#E2E2E2;stroke-width:2;stroke-miterlimit:10;}
</style>
<g id="XMLID_8_">
	
		<linearGradient id="XMLID_2_" gradientUnits="userSpaceOnUse" x1="38.0736" y1="238.58" x2="38.0736" y2="602.7079" gradientTransform="matrix(1 0 0 -1 0 842.47)">
		<stop  offset="0" style="stop-color:#FFFFFF;stop-opacity:0"/>
		<stop  offset="0.1274" style="stop-color:#F1F1F1;stop-opacity:0.1274"/>
		<stop  offset="0.4961" style="stop-color:#CFCFCF;stop-opacity:0.4961"/>
		<stop  offset="0.8001" style="stop-color:#BABABA;stop-opacity:0.8001"/>
		<stop  offset="1" style="stop-color:#B3B3B3"/>
	</linearGradient>
	<path id="XMLID_9_" class="st0" d="M29.5,603.9l9.3-89.2c2.6-17.5,25.3-21.1,35-33.4c10.1-10.5,17.9-22.4,23.4-35.8
		c0.8-2.1,1.6-4.1,2.4-6.3l0.3-0.2v-0.4l0.4-0.3c1.2-1.9,2.3-3.9,3.2-5.9l0.2-0.2l0.5-1.3l0.2-0.1l6-11c3.3-3.8,5.9-9.2,8.5-13.2
		c1.5-2.3,2.5-4.8,3.5-7.4c3.5-9.2,5.1-18.5,10.6-27.2c0.5-0.8,7.8-10.6,7.1-11c-0.6-0.4-0.5-4.5-1.2-5.8c-0.6-1.1-2.1-2.4-2.9-3
		c-5.8-3.9-14.8-2.3-20.8,0.9c-8,5.1-12.4,15.3-17.3,23c-3.7,5.9-7.5,11.8-11.3,17.7l-0.2,0.1l-0.4,0.5l-0.3,0.1
		c-1.6,3-4,4.4-7.1,4.2c-0.3-0.2-0.7-0.3-0.9-0.5c-0.3-0.3-8.5-10.8-0.8-34.4L98,288.2c4.3-19.4-18.9-21.9-22.9-6.1l-25.9,71.4
		c-0.2,4.5-6,6-4.8,0.3C47,342,61,255.1,61,255.1c0.9-19.2-24.3-21.1-27.1-1.5c-0.4,2.3-16.1,82.5-18.4,96.3c-0.4,2.1-1.1,3.8-3,4.9
		c-2-1.4-3-3.4-3-5.9c-0.1-1.1,0-2.2,0.1-3.3c0,0,2.1-78.3,2.1-87.5c0-16-21.6-17.8-23,0.5c-1,13.5-7.3,93.4-7.3,93.4
		c-0.3,2-1.2,5.2-3.3,6.9c-1,0.8-1.8,0.6-2.6-0.5l-0.2-0.1l-1-2.3l-2.9-71.9c-1.3-19.1-22.9-17.4-22.9-0.1
		c0,13.2-1.2,91.2-3.5,111.9c-3.3,25.4-8.2,62.4,5.2,87c3.5,6.4,5,10.3,6.6,18.7L-64,591.9"/>
</g>
</svg>
