<?xml version="1.0" encoding="utf-8"?>
<!-- Generator: Adobe Illustrator 19.0.0, SVG Export Plug-In . SVG Version: 6.00 Build 0)  -->
<svg version="1.1" id="Layer_1" xmlns="http://www.w3.org/2000/svg" xmlns:xlink="http://www.w3.org/1999/xlink" x="0px" y="0px"
	 viewBox="-49 141 256 256" style="enable-background:new -49 141 256 256;" xml:space="preserve">
<style type="text/css">
	.st0{fill:#00ABD3;}
</style>
<g>
	<g>
		<path class="st0" d="M97,142.3C27,132.3-37.7,181-47.7,250.9c-0.8,6-1.3,12.1-1.3,18.3c-0.1,39.2,17.9,76.3,48.9,100.5
			c22.6,17.7,50.4,27.4,79.1,27.5c70.7,0,127.9-57.3,127.9-127.9C207,205.4,160.1,151.3,97,142.3z M78.9,380.1
			C17.7,380.1-32,330.5-32,269.2c0-5.3,0.4-10.6,1.1-15.9c8.1-54.4,54.7-94.8,109.8-95c61.2,0,110.9,49.6,110.9,110.9
			S140.2,380.1,78.9,380.1z"/>
	</g>
</g>
<g>
	<g>
		<path class="st0" d="M74.5,303.2L32.3,261c-3.3-3.3-8.7-3.3-12.1,0s-3.3,8.7,0,12.1l42.2,42.2c3.3,3.3,8.7,3.3,12.1,0
			C77.8,312,77.8,306.6,74.5,303.2z"/>
	</g>
</g>
<g>
	<g>
		<path class="st0" d="M74.5,315.3l72.2-72.2c3.3-3.3,3.3-8.7,0-12.1c-3.3-3.3-8.7-3.3-12.1,0l-72.2,72.2c-3.3,3.3-3.3,8.7,0,12.1
			S71.2,318.6,74.5,315.3z"/>
	</g>
</g>
</svg>
